<svg width="300" height="100" viewBox="0 0 300 100" fill="none" xmlns="http://www.w3.org/2000/svg">
<path d="M36.56 50.48C34.9333 51.5733 33.0933 52.5733 31.04 53.48C28.9867 54.36 27.0133 55.0667 25.12 55.6C24.2933 55.84 23.4267 56.0267 22.52 56.16C21.6133 56.32 20.7333 56.4667 19.88 56.6C19.56 56.6533 19.24 56.7067 18.92 56.76C18.6267 56.8133 18.32 56.84 18 56.84C17.8933 56.84 17.7467 56.8267 17.56 56.8C17.3733 56.7733 17.28 56.68 17.28 56.52C17.28 56.3333 17.4 56.1867 17.64 56.08C17.9067 55.9733 18.1733 55.8933 18.44 55.84C18.7067 55.76 18.9733 55.6667 19.24 55.56C19.5867 55.4267 19.92 55.2933 20.24 55.16C20.56 55.0267 20.8933 54.8933 21.24 54.76C23.4 53.88 25.48 52.92 27.48 51.88C29.48 50.8133 31.3333 49.4667 33.04 47.84C33.6533 48.2667 34.24 48.7067 34.8 49.16C35.3867 49.5867 35.9733 50.0267 36.56 50.48ZM41.56 53.68C41.56 53.7867 41.4933 53.8933 41.36 54C41.2267 54.08 41.12 54.1467 41.04 54.2C37.7333 55.9333 34.36 57.32 30.92 58.36C27.48 59.4267 23.88 59.96 20.12 59.96C20.0133 59.96 19.84 59.96 19.6 59.96C19.36 59.96 19.1333 59.92 18.92 59.84C18.7067 59.7867 18.6 59.68 18.6 59.52C18.6 59.4133 18.6533 59.32 18.76 59.24C18.8667 59.16 18.96 59.1067 19.04 59.08C19.2533 59 19.4667 58.9333 19.68 58.88C19.8933 58.8533 20.0933 58.8133 20.28 58.76C20.6533 58.6533 21.04 58.5467 21.44 58.44C21.84 58.3333 22.2267 58.2267 22.6 58.12C24.2267 57.6133 25.96 57 27.8 56.28C29.64 55.56 31.4267 54.7467 33.16 53.84C34.92 52.9333 36.44 51.9333 37.72 50.84C37.8267 50.92 38.08 51.0933 38.48 51.36C38.88 51.6267 39.32 51.9333 39.8 52.28C40.28 52.6 40.6933 52.8933 41.04 53.16C41.3867 53.4267 41.56 53.6 41.56 53.68ZM32.52 47.04C31.64 47.6533 30.5867 48.3467 29.36 49.12C28.16 49.8933 26.88 50.64 25.52 51.36C24.16 52.0533 22.8133 52.64 21.48 53.12C20.1733 53.5733 18.9867 53.8 17.92 53.8C17.6533 53.8 17.52 53.6933 17.52 53.48C17.52 53.3733 17.5733 53.2933 17.68 53.24C18.24 52.9733 18.7867 52.7067 19.32 52.44C19.8533 52.1733 20.3733 51.88 20.88 51.56C22.4267 50.5733 23.88 49.5067 25.24 48.36C26.6267 47.2133 27.9467 45.9867 29.2 44.68L32.52 47.04ZM49.64 50.6C49.64 51.1867 49.4 51.6133 48.92 51.88C48.44 52.1467 47.9467 52.28 47.44 52.28C45.9467 52.28 44.4133 52.0267 42.84 51.52C41.2667 50.9867 39.72 50.28 38.2 49.4C36.7067 48.52 35.32 47.5467 34.04 46.48C32.76 45.3867 31.6533 44.2933 30.72 43.2C30.2933 43.3067 29.8133 43.4533 29.28 43.64C28.7467 43.8267 28.2933 44.04 27.92 44.28C27.5733 44.4933 27.24 44.7467 26.92 45.04C26.6267 45.3067 26.32 45.5733 26 45.84C23.8667 47.4933 21.7333 48.8933 19.6 50.04C17.4667 51.16 15.08 52.0533 12.44 52.72C12.2533 52.7733 12.0533 52.8133 11.84 52.84C11.6267 52.8667 11.4133 52.88 11.2 52.88C11.0933 52.88 10.9867 52.8533 10.88 52.8C10.8 52.72 10.76 52.6267 10.76 52.52C10.76 52.36 10.7867 52.2533 10.84 52.2C10.92 52.1467 11.0133 52.0933 11.12 52.04C12.88 50.9733 14.5467 49.9067 16.12 48.84C17.6933 47.7733 19.1733 46.6 20.56 45.32C21.9733 44.04 23.3067 42.56 24.56 40.88V39.56C23.4933 40.1733 22.4 40.76 21.28 41.32C20.16 41.8533 19.0133 42.2667 17.84 42.56C17.3333 42.6667 16.8133 42.7867 16.28 42.92C15.7467 43.0267 15.2133 43.08 14.68 43.08C14.6 43.08 14.4933 43.0533 14.36 43C14.2533 42.9467 14.2 42.8667 14.2 42.76C14.2 42.6 14.2667 42.48 14.4 42.4C14.5333 42.2933 14.6533 42.2133 14.76 42.16C15.2133 41.92 15.6667 41.68 16.12 41.44C16.6 41.2 17.0533 40.9333 17.48 40.64C18.5733 39.8933 19.6133 39.0667 20.6 38.16C21.5867 37.2533 22.4933 36.2933 23.32 35.28L24.56 36.04V32.64H21.48C21.6133 32.6933 21.8667 32.8267 22.24 33.04C22.64 33.2267 23.0133 33.4133 23.36 33.6C23.7333 33.7867 23.92 33.9333 23.92 34.04C23.92 34.12 23.88 34.1867 23.8 34.24C22.5733 35.04 21.1867 35.72 19.64 36.28C18.12 36.84 16.6533 37.28 15.24 37.6C15 37.6533 14.7467 37.72 14.48 37.8C14.2133 37.8533 13.9467 37.88 13.68 37.88C13.6 37.88 13.4933 37.8533 13.36 37.8C13.2533 37.7467 13.2 37.6667 13.2 37.56C13.2 37.4 13.2533 37.28 13.36 37.2C13.4667 37.12 13.5733 37.0533 13.68 37C13.92 36.8667 14.16 36.7467 14.4 36.64C14.64 36.5067 14.88 36.36 15.12 36.2C15.8933 35.6933 16.6267 35.1467 17.32 34.56C18.0133 33.9467 18.68 33.3067 19.32 32.64H14.44V30.88H28.96V39.2C29.28 39.3067 29.6 39.4133 29.92 39.52C30.24 39.6 30.56 39.7067 30.88 39.84C30.9867 39.8667 31.0667 39.8933 31.12 39.92C31.2 39.9467 31.24 40.0267 31.24 40.16C31.24 40.2933 31.1333 40.5067 30.92 40.8C30.7333 41.0933 30.52 41.3867 30.28 41.68C30.0667 41.9467 29.9067 42.1333 29.8 42.24C29.96 42.16 30.2533 42.04 30.68 41.88C31.1067 41.72 31.56 41.5467 32.04 41.36C32.5467 41.1467 33 40.9733 33.4 40.84C33.8267 40.7067 34.1067 40.64 34.24 40.64C34.3733 40.64 34.52 40.6933 34.68 40.8C34.7067 40.8 34.8133 40.9467 35 41.24C35.2133 41.5067 35.4267 41.7867 35.64 42.08C35.8533 42.3733 35.9733 42.5467 36 42.6C36.7733 43.6133 37.7067 44.6133 38.8 45.6C39.8933 46.5867 41.0533 47.4933 42.28 48.32C43.5067 49.1467 44.6933 49.84 45.84 50.4C46.0267 49.8667 46.28 49.48 46.6 49.24C46.92 48.9733 47.36 48.84 47.92 48.84C48.32 48.84 48.7067 49.04 49.08 49.44C49.4533 49.8133 49.64 50.2 49.64 50.6ZM45.12 41.36H40.52V38.52C39.6933 38.7867 38.7867 39.0667 37.8 39.36C36.8133 39.6533 35.8267 39.9067 34.84 40.12C33.8533 40.3067 32.9333 40.4 32.08 40.4C31.84 40.4 31.72 40.3067 31.72 40.12C31.72 39.9867 31.8267 39.8667 32.04 39.76C32.2533 39.6267 32.4133 39.5333 32.52 39.48C33.9333 38.7867 35.24 38.08 36.44 37.36C37.6667 36.6133 38.84 35.6667 39.96 34.52L40.52 34.88V32.6H37.68C37.7867 32.6533 38 32.76 38.32 32.92C38.64 33.08 38.9467 33.2533 39.24 33.44C39.5333 33.6 39.68 33.7333 39.68 33.84C39.68 33.92 39.64 33.9867 39.56 34.04C38.7867 34.52 37.8133 35.0267 36.64 35.56C35.4933 36.0667 34.32 36.4933 33.12 36.84C31.92 37.1867 30.8533 37.36 29.92 37.36C29.84 37.36 29.7333 37.3467 29.6 37.32C29.4933 37.2667 29.44 37.1867 29.44 37.08C29.44 36.9467 29.4933 36.84 29.6 36.76C29.7067 36.68 29.8133 36.6133 29.92 36.56C30.9067 36.0267 31.8133 35.44 32.64 34.8C33.4667 34.1333 34.2667 33.4 35.04 32.6H30.36V30.88H45.12V41.36ZM47.56 25.92C47.56 26.6667 47.24 27.2 46.6 27.52C45.96 27.8133 45.3333 27.96 44.72 27.96H36.04C35.88 28.2 35.6 28.5333 35.2 28.96C34.8 29.36 34.3733 29.72 33.92 30.04C33.4667 30.36 33.08 30.52 32.76 30.52C32.6267 30.52 32.4933 30.4667 32.36 30.36C32.2267 30.2533 32.16 30.12 32.16 29.96C32.16 29.6133 32.16 29.28 32.16 28.96C32.16 28.64 32.1733 28.3067 32.2 27.96H26.28L26.4 29.92L21.68 30.16L21.56 27.96H12.64V26.08H21.48L21.28 22.6L26 22.44L26.2 26.08H32.4C32.48 25.44 32.5467 24.8133 32.6 24.2C32.6533 23.56 32.72 22.92 32.8 22.28L37.92 22.96C38.0533 22.9867 38.16 23.0267 38.24 23.08C38.32 23.1067 38.36 23.1867 38.36 23.32C38.36 23.5333 38.28 23.8267 38.12 24.2C37.96 24.5467 37.7733 24.8933 37.56 25.24C37.3733 25.5867 37.2133 25.8667 37.08 26.08H42.4C42.4533 25.4133 42.7067 24.8267 43.16 24.32C43.6133 23.7867 44.1867 23.52 44.88 23.52C45.6533 23.52 46.2933 23.72 46.8 24.12C47.3067 24.52 47.56 25.12 47.56 25.92ZM68.8 34.8C68.8 35.36 68.5467 35.7867 68.04 36.08C67.56 36.3467 67.08 36.48 66.6 36.48H63.24V39.8C63.6933 39.5867 64.1467 39.3733 64.6 39.16C65.0533 38.9467 65.5067 38.7467 65.96 38.56C66.0133 38.72 66.1333 39.0533 66.32 39.56C66.5333 40.0667 66.76 40.6533 67 41.32C67.2667 41.96 67.52 42.6 67.76 43.24C68.0267 43.8533 68.24 44.3733 68.4 44.8C68.56 45.2267 68.64 45.4533 68.64 45.48C68.64 45.6667 68.56 45.8133 68.4 45.92C68.2667 46 68.12 46.04 67.96 46.04C67.6667 46.04 67.24 45.8533 66.68 45.48C66.1467 45.08 65.6133 44.64 65.08 44.16C64.7067 43.8133 64.3467 43.48 64 43.16C63.6533 42.8133 63.4 42.5467 63.24 42.36V58.8H58.56V43.48C58.1067 44.4667 57.4533 45.5467 56.6 46.72C55.7467 47.8933 54.8133 48.9733 53.8 49.96C52.7867 50.9467 51.76 51.6533 50.72 52.08C50.6933 52.1067 50.6267 52.12 50.52 52.12C50.4667 52.12 50.4 52.1067 50.32 52.08C50.24 52.0267 50.2 51.96 50.2 51.88C50.2 51.8267 50.24 51.7467 50.32 51.64C50.4 51.5067 50.4933 51.3467 50.6 51.16C50.76 50.84 50.9333 50.5067 51.12 50.16C51.3333 49.7867 51.4667 49.5467 51.52 49.44C52.3733 47.7067 53.0933 45.92 53.68 44.08C54.2667 42.24 54.72 40.3733 55.04 38.48C55.6267 38.6667 56.2133 38.8533 56.8 39.04C57.3867 39.2267 57.9733 39.4 58.56 39.56V36.48H52.08V34.72H58.56V29.56C57.4933 29.6933 56.4267 29.8133 55.36 29.92C54.2933 30 53.2133 30.04 52.12 30.04C52.0133 30.04 51.88 30.0267 51.72 30C51.56 29.9467 51.48 29.84 51.48 29.68C51.48 29.4667 51.64 29.32 51.96 29.24C52.1733 29.1867 52.4533 29.0933 52.8 28.96C53.1733 28.8267 53.4267 28.7467 53.56 28.72C55.5333 28.0267 57.4267 27.2133 59.24 26.28C61.0533 25.3467 62.8133 24.3067 64.52 23.16C64.8667 23.3733 65.2933 23.6667 65.8 24.04C66.3333 24.4133 66.84 24.7867 67.32 25.16C67.8 25.5067 68.1467 25.76 68.36 25.92C68.4933 26.0267 68.56 26.16 68.56 26.32C68.56 26.56 68.28 26.8133 67.72 27.08C67.32 27.2933 66.8 27.52 66.16 27.76C65.52 27.9733 64.92 28.16 64.36 28.32C63.8267 28.48 63.4533 28.5867 63.24 28.64V34.72H64.8C64.8 34.1867 65.0133 33.7467 65.44 33.4C65.8667 33.0267 66.3333 32.84 66.84 32.84C67.3733 32.84 67.8267 33.04 68.2 33.44C68.6 33.8133 68.8 34.2667 68.8 34.8ZM76.16 42.16C76.16 42.4 76.08 42.5867 75.92 42.72C75.76 42.8267 75.5733 42.88 75.36 42.88C75.2 42.88 75.0667 42.8533 74.96 42.8C74.8533 42.7467 74.7333 42.68 74.6 42.6C73.5067 41.96 72.3867 41.3467 71.24 40.76C70.12 40.1733 69.0133 39.5733 67.92 38.96C68.08 38.8 68.32 38.56 68.64 38.24C68.9867 37.8933 69.3467 37.5467 69.72 37.2C70.0933 36.8267 70.4 36.5067 70.64 36.24C71.12 35.7067 71.5467 35.44 71.92 35.44C72.16 35.44 72.4533 35.64 72.8 36.04C73.1467 36.4133 73.5067 36.8933 73.88 37.48C74.28 38.0667 74.6533 38.68 75 39.32C75.3467 39.9333 75.6267 40.5067 75.84 41.04C76.0533 41.5467 76.16 41.92 76.16 42.16ZM89.76 42.04C89.76 42.6 89.5867 43.1067 89.24 43.56C88.92 43.9867 88.4933 44.2667 87.96 44.4L82.8 45.8V59.08H78.2V46.84L67.32 49.6L66.72 47.52L78.2 44.6V24.56H82.8V43.56L84.76 43.04C84.68 42.9867 84.6267 42.88 84.6 42.72C84.5733 42.5333 84.56 42.3867 84.56 42.28C84.56 41.56 84.8267 40.96 85.36 40.48C85.8933 39.9733 86.52 39.72 87.24 39.72C87.8533 39.72 88.4267 39.9467 88.96 40.4C89.4933 40.8533 89.76 41.4 89.76 42.04ZM76.84 33.44C76.84 33.92 76.5733 34.16 76.04 34.16C75.9067 34.16 75.7733 34.1333 75.64 34.08C75.5333 34.0267 75.4133 33.9733 75.28 33.92C74.16 33.3333 73.04 32.7333 71.92 32.12C70.8267 31.48 69.7333 30.8533 68.64 30.24C68.8 30.08 69.0533 29.8133 69.4 29.44C69.7467 29.04 70.12 28.6267 70.52 28.2C70.9467 27.7733 71.3467 27.4133 71.72 27.12C72.0933 26.8 72.3733 26.64 72.56 26.64C72.8 26.64 73.0933 26.84 73.44 27.24C73.8133 27.6133 74.1867 28.0933 74.56 28.68C74.96 29.2667 75.3333 29.88 75.68 30.52C76.0267 31.16 76.3067 31.7467 76.52 32.28C76.7333 32.8133 76.84 33.2 76.84 33.44ZM119.4 50.92C119.4 51.7467 119.067 52.4533 118.4 53.04C117.76 53.6 117.093 54.04 116.4 54.36C115.04 55 113.587 55.48 112.04 55.8C110.52 56.0933 109.013 56.24 107.52 56.24C106.24 56.24 104.96 56.12 103.68 55.88C102.427 55.64 101.24 55.24 100.12 54.68C99 54.12 98.0533 53.3733 97.28 52.44C96.5067 51.48 95.9733 50.2933 95.68 48.88C95.8667 48.7467 96.2 48.5067 96.68 48.16C97.1867 47.7867 97.6933 47.44 98.2 47.12C98.7067 46.8 99.0533 46.64 99.24 46.64C99.48 46.64 99.64 46.7867 99.72 47.08C99.8533 47.48 99.9867 47.8667 100.12 48.24C100.253 48.5867 100.427 48.9467 100.64 49.32C101.493 50.76 102.707 51.8667 104.28 52.64C105.853 53.4133 107.453 53.8 109.08 53.8C110.173 53.8 111.227 53.72 112.24 53.56C113.28 53.3733 114.307 53.1067 115.32 52.76C115.133 52.5467 114.96 52.2933 114.8 52C114.667 51.68 114.6 51.3733 114.6 51.08C114.6 50.4933 114.84 49.9867 115.32 49.56C115.8 49.1067 116.32 48.88 116.88 48.88C117.413 48.88 117.96 49.0667 118.52 49.44C119.107 49.8133 119.4 50.3067 119.4 50.92ZM117.32 31.28C117.32 31.92 117.04 32.6 116.48 33.32C115.92 34.0133 115.267 34.6533 114.52 35.24C113.8 35.8267 113.187 36.28 112.68 36.6C112.493 36.7333 112.28 36.88 112.04 37.04C111.827 37.1733 111.613 37.2933 111.4 37.4C111.213 37.48 111 37.52 110.76 37.52C110.573 37.52 110.413 37.48 110.28 37.4C110.147 37.2933 110.08 37.1467 110.08 36.96C110.08 36.7467 110.173 36.44 110.36 36.04C110.547 35.6133 110.733 35.16 110.92 34.68C111.107 34.1733 111.2 33.72 111.2 33.32C111.2 32.84 111.053 32.5067 110.76 32.32C110.493 32.1067 110.16 31.9733 109.76 31.92C109.387 31.84 109.027 31.7867 108.68 31.76C108.333 31.7333 107.96 31.72 107.56 31.72C107.187 31.6933 106.813 31.68 106.44 31.68C105.053 31.68 103.653 31.7467 102.24 31.88C100.853 32.0133 99.4667 32.16 98.08 32.32L98.12 29.84C100.973 29.6 103.84 29.48 106.72 29.48C108.32 29.48 109.92 29.5333 111.52 29.64C113.147 29.72 114.747 29.9333 116.32 30.28C116.533 30.3067 116.733 30.3867 116.92 30.52C117.187 30.6267 117.32 30.88 117.32 31.28ZM124.88 33.44C124.88 33.52 124.827 33.6133 124.72 33.72C124.64 33.8 124.547 33.84 124.44 33.84C124.253 33.84 123.933 33.76 123.48 33.6C123.027 33.44 122.52 33.24 121.96 33C121.427 32.76 120.907 32.5333 120.4 32.32C119.92 32.1067 119.547 31.96 119.28 31.88C119.2 31.8533 119.093 31.8133 118.96 31.76C118.853 31.7067 118.8 31.6267 118.8 31.52C118.8 31.36 118.96 31.0933 119.28 30.72C119.6 30.32 119.933 29.96 120.28 29.64C120.653 29.2933 120.92 29.12 121.08 29.12C121.373 29.12 121.733 29.2933 122.16 29.64C122.587 29.96 123 30.3733 123.4 30.88C123.827 31.36 124.173 31.84 124.44 32.32C124.733 32.7733 124.88 33.1467 124.88 33.44ZM127.36 29.72C127.36 29.8 127.307 29.8933 127.2 30C127.12 30.08 127.027 30.12 126.92 30.12C126.84 30.12 126.613 30.04 126.24 29.88C125.893 29.6933 125.493 29.4933 125.04 29.28C124.587 29.04 124.16 28.8133 123.76 28.6C123.387 28.3867 123.133 28.24 123 28.16C122.893 28.1067 122.693 28.04 122.4 27.96C122.133 27.8533 121.88 27.7333 121.64 27.6C121.4 27.4667 121.28 27.3467 121.28 27.24C121.28 27.08 121.44 26.8133 121.76 26.44C122.08 26.0667 122.427 25.72 122.8 25.4C123.2 25.08 123.48 24.92 123.64 24.92C123.96 24.92 124.333 25.1067 124.76 25.48C125.187 25.8533 125.587 26.32 125.96 26.88C126.36 27.4133 126.693 27.9467 126.96 28.48C127.227 28.9867 127.36 29.4 127.36 29.72ZM162.24 50.04C162.24 50.5467 162.04 51.0533 161.64 51.56C161.267 52.04 160.813 52.48 160.28 52.88C159.773 53.2533 159.32 53.56 158.92 53.8C158.093 54.2533 157.093 54.6933 155.92 55.12C154.773 55.5467 153.6 55.8933 152.4 56.16C151.227 56.4533 150.16 56.6 149.2 56.6C148.08 56.6 146.893 56.48 145.64 56.24C144.387 56.0267 143.2 55.6533 142.08 55.12C140.987 54.56 140.093 53.8267 139.4 52.92C138.707 51.9867 138.36 50.8267 138.36 49.44C138.36 48.24 138.667 47.1333 139.28 46.12C139.92 45.1067 140.733 44.1867 141.72 43.36C142.707 42.5333 143.747 41.8 144.84 41.16C145.933 40.52 146.947 39.9733 147.88 39.52C147.4 39.1467 147.013 38.7067 146.72 38.2C146.427 37.6667 146.2 37.1067 146.04 36.52C145.933 36.1467 145.84 35.7733 145.76 35.4C145.707 35.0267 145.653 34.6533 145.6 34.28C145.413 32.8133 145.24 31.3467 145.08 29.88C144.947 28.4133 144.813 26.9467 144.68 25.48L149.48 25.2C149.533 26.3467 149.573 27.4933 149.6 28.64C149.627 29.7867 149.667 30.9467 149.72 32.12C149.747 32.7067 149.773 33.3067 149.8 33.92C149.827 34.5067 149.893 35.1067 150 35.72C150.027 35.8533 150.08 36.08 150.16 36.4C150.267 36.6933 150.4 36.9733 150.56 37.24C150.72 37.48 150.893 37.6 151.08 37.6C151.24 37.6 151.507 37.4933 151.88 37.28C152.253 37.04 152.627 36.8133 153 36.6C153.4 36.3867 153.72 36.28 153.96 36.28C154.2 36.28 154.373 36.32 154.48 36.4C154.613 36.48 154.773 36.6 154.96 36.76C155.147 36.92 155.387 37.1733 155.68 37.52C155.973 37.84 156.227 38.1867 156.44 38.56C156.68 38.9067 156.8 39.2133 156.8 39.48C156.8 39.9067 156.64 40.1867 156.32 40.32C156.027 40.4533 155.693 40.52 155.32 40.52C155.133 40.52 154.947 40.52 154.76 40.52C154.6 40.4933 154.427 40.48 154.24 40.48C153.147 40.48 151.92 40.6533 150.56 41C149.2 41.3467 147.893 41.8667 146.64 42.56C145.413 43.2533 144.387 44.1067 143.56 45.12C142.76 46.1067 142.36 47.2533 142.36 48.56C142.36 49.7867 142.747 50.8 143.52 51.6C144.293 52.3733 145.227 52.9467 146.32 53.32C147.44 53.6933 148.52 53.88 149.56 53.88C151.053 53.88 152.627 53.6933 154.28 53.32C155.96 52.9467 157.48 52.44 158.84 51.8C157.987 51.5067 157.56 50.8933 157.56 49.96C157.56 49.4 157.813 48.9333 158.32 48.56C158.853 48.16 159.387 47.96 159.92 47.96C160.507 47.96 161.04 48.16 161.52 48.56C162 48.9333 162.24 49.4267 162.24 50.04ZM199.84 42.48C199.84 44.4533 199.413 46.2933 198.56 48C197.707 49.68 196.587 51.2 195.2 52.56C193.973 53.7867 192.653 54.7733 191.24 55.52C189.827 56.2667 188.32 56.9333 186.72 57.52C186.453 57.6 186.027 57.7333 185.44 57.92C184.88 58.1067 184.32 58.28 183.76 58.44C183.2 58.6 182.8 58.68 182.56 58.68C182.453 58.68 182.333 58.64 182.2 58.56C182.067 58.5067 182 58.4133 182 58.28C182 58.12 182.067 57.9867 182.2 57.88C182.333 57.7733 182.453 57.7067 182.56 57.68C183.093 57.4667 183.707 57.2 184.4 56.88C185.093 56.56 185.707 56.2267 186.24 55.88C187.787 54.8933 189.213 53.7333 190.52 52.4C191.853 51.04 192.92 49.52 193.72 47.84C194.52 46.16 194.92 44.3733 194.92 42.48C194.92 41.5733 194.773 40.6533 194.48 39.72C194.213 38.76 193.76 37.96 193.12 37.32C192.48 36.68 191.613 36.36 190.52 36.36C189.773 36.36 188.88 36.5733 187.84 37C186.827 37.4267 185.827 37.9467 184.84 38.56C183.88 39.1467 183.107 39.68 182.52 40.16C182.387 40.2667 182.24 40.3733 182.08 40.48C181.92 40.5867 181.733 40.64 181.52 40.64C181.253 40.64 181.067 40.56 180.96 40.4C180.88 40.2133 180.813 40.0267 180.76 39.84C180.627 39.3867 180.533 38.8933 180.48 38.36C180.453 37.8267 180.413 37.32 180.36 36.84C182.013 36.04 183.707 35.4133 185.44 34.96C187.173 34.5067 188.96 34.28 190.8 34.28C193.493 34.28 195.667 34.9333 197.32 36.24C199 37.5467 199.84 39.6267 199.84 42.48ZM194.6 30.92C194.6 31.16 194.467 31.3067 194.2 31.36C193.933 31.3867 193.72 31.4 193.56 31.4C192.947 31.4 192.333 31.36 191.72 31.28C191.133 31.1733 190.533 31.0533 189.92 30.92C189.707 30.8667 189.28 30.7333 188.64 30.52C188.027 30.3067 187.36 30.0667 186.64 29.8C185.947 29.5067 185.347 29.2267 184.84 28.96C184.333 28.6667 184.08 28.4133 184.08 28.2C184.08 28.12 184.187 27.9333 184.4 27.64C184.613 27.32 184.867 26.9867 185.16 26.64C185.48 26.2667 185.773 25.9333 186.04 25.64C186.307 25.3467 186.48 25.16 186.56 25.08C186.773 24.92 187 24.84 187.24 24.84C187.4 24.84 187.533 24.88 187.64 24.96C187.827 25.0667 188.067 25.28 188.36 25.6C188.653 25.8933 188.88 26.12 189.04 26.28C189.707 27.0267 190.44 27.7067 191.24 28.32C192.067 28.9067 192.893 29.4667 193.72 30C193.88 30.1067 194.067 30.2267 194.28 30.36C194.493 30.4933 194.6 30.68 194.6 30.92ZM226.88 47.36L226.8 55.04C227.813 54.9067 228.813 54.7067 229.8 54.44C230.813 54.1733 231.8 53.8667 232.76 53.52C232.227 52.9067 231.72 52.28 231.24 51.64C230.76 51 230.293 50.3467 229.84 49.68C230.96 49.3067 232.08 48.9333 233.2 48.56C234.32 48.1867 235.427 47.7867 236.52 47.36H226.88ZM224.28 34.72V32.08H221.32V34.72H224.28ZM224.28 30.44V27.92H221.32V30.44H224.28ZM231.24 34.72V32.08H228.64V34.72H231.24ZM231.24 30.44V27.92H228.64V30.44H231.24ZM238.96 27.92H235.64V30.44H235.84C235.92 30.1467 236.08 29.92 236.32 29.76C236.587 29.5733 236.867 29.48 237.16 29.48C237.533 29.48 237.84 29.6133 238.08 29.88C238.32 30.12 238.44 30.4267 238.44 30.8C238.44 31.3067 238.28 31.6533 237.96 31.84C237.64 32 237.267 32.08 236.84 32.08C236.413 32.08 236.013 32.08 235.64 32.08V34.72H236.2C237.133 34.72 237.827 34.4667 238.28 33.96C238.733 33.4267 238.96 32.7067 238.96 31.8V27.92ZM247.72 57.92C247.72 58.3733 247.52 58.76 247.12 59.08C246.747 59.4267 246.333 59.6 245.88 59.6C243.453 59.6 241.28 59.16 239.36 58.28C237.467 57.4267 235.653 56.1867 233.92 54.56C232.373 56.0267 230.587 57.08 228.56 57.72C226.533 58.36 224.493 58.8267 222.44 59.12L222.52 47.36H220.48C220.213 49.4667 219.653 51.4267 218.8 53.24C217.947 55.0267 216.64 56.5867 214.88 57.92C214.533 58.1867 214.067 58.4667 213.48 58.76C212.893 59.08 212.373 59.24 211.92 59.24C211.813 59.24 211.72 59.1867 211.64 59.08C211.587 59 211.56 58.92 211.56 58.84C211.56 58.7867 211.667 58.6133 211.88 58.32C212.12 58.0533 212.36 57.76 212.6 57.44C212.867 57.12 213.027 56.9067 213.08 56.8C214.413 54.8267 215.253 52.7067 215.6 50.44C215.973 48.1733 216.16 45.8667 216.16 43.52C216.16 42.6133 216.147 41.72 216.12 40.84C216.12 39.9333 216.107 39.0267 216.08 38.12H242C242.027 37.5067 242.227 36.9733 242.6 36.52C243 36.04 243.52 35.8 244.16 35.8C244.773 35.8 245.32 35.9733 245.8 36.32C246.307 36.64 246.56 37.1333 246.56 37.8C246.56 38.52 246.333 39.04 245.88 39.36C245.453 39.68 244.907 39.84 244.24 39.84H220.8C220.8 40.5067 220.8 41.1733 220.8 41.84C220.827 42.5067 220.84 43.1867 220.84 43.88C220.84 44.1467 220.827 44.4267 220.8 44.72C220.8 44.9867 220.787 45.2667 220.76 45.56H242.72C242.773 45.0267 243 44.5733 243.4 44.2C243.827 43.8267 244.307 43.64 244.84 43.64C245.373 43.64 245.867 43.8133 246.32 44.16C246.773 44.48 247 44.92 247 45.48C247 46.0133 246.8 46.4667 246.4 46.84C246.027 47.1867 245.573 47.36 245.04 47.36H240.6C240.707 47.44 240.907 47.6133 241.2 47.88C241.493 48.1467 241.773 48.4133 242.04 48.68C242.307 48.9467 242.44 49.1333 242.44 49.24C242.44 49.4267 242.32 49.5867 242.08 49.72C242.027 49.7467 241.707 49.7867 241.12 49.84C240.533 49.8933 239.84 49.9467 239.04 50C238.267 50.0533 237.547 50.1067 236.88 50.16C236.213 50.1867 235.773 50.2133 235.56 50.24C236.547 51.7867 237.747 53.24 239.16 54.6C240.6 55.96 242.133 57.0667 243.76 57.92V57.88C243.867 57.3467 244.093 56.8933 244.44 56.52C244.813 56.1733 245.293 56 245.88 56C246.413 56 246.853 56.1867 247.2 56.56C247.547 56.9333 247.72 57.3867 247.72 57.92ZM240.76 42C240.76 42.5067 240.573 42.9067 240.2 43.2C239.853 43.4667 239.44 43.6 238.96 43.6H223.56V41.88H237.28C237.36 41.48 237.573 41.1467 237.92 40.88C238.267 40.6133 238.64 40.48 239.04 40.48C239.44 40.48 239.827 40.6267 240.2 40.92C240.573 41.2133 240.76 41.5733 240.76 42ZM243.64 32C243.64 33.2533 243.333 34.1867 242.72 34.8C242.107 35.3867 241.333 35.7733 240.4 35.96C239.467 36.1467 238.493 36.24 237.48 36.24H216.84V26.2H224.28V22.76H228.64V26.2H231.24V22.8H235.64V26.2H243.64V32ZM273.52 40.4H265.28V43.36H271.92C272.507 43.36 272.92 43.1867 273.16 42.84C273.4 42.4933 273.52 42.0533 273.52 41.52V40.4ZM280.32 52.04C280.32 52.44 280.16 52.8 279.84 53.12C279.547 53.44 279.187 53.6 278.76 53.6C277.933 53.6 277.053 53.32 276.12 52.76C275.187 52.2 274.32 51.5467 273.52 50.8C272.72 50.0267 272.067 49.3333 271.56 48.72V54.76H267.16V48.12C266.093 49.1333 264.907 50.0133 263.6 50.76C262.32 51.5067 260.947 52.0267 259.48 52.32C259.453 52.32 259.413 52.3333 259.36 52.36C259.307 52.36 259.253 52.36 259.2 52.36C259.12 52.36 259.027 52.3467 258.92 52.32C258.84 52.2667 258.8 52.1867 258.8 52.08C258.8 51.92 258.893 51.7733 259.08 51.64C260.387 50.68 261.587 49.6533 262.68 48.56C263.773 47.44 264.747 46.2 265.6 44.84H261.16V38.84H277.76V41.4C277.76 42.4933 277.36 43.3467 276.56 43.96C275.787 44.5467 274.893 44.84 273.88 44.84H271.56V47.64C272.653 47.1067 273.733 46.5467 274.8 45.96C275.867 45.3467 276.88 44.6667 277.84 43.92C278 44.0533 278.28 44.2933 278.68 44.64C279.08 44.9867 279.453 45.3467 279.8 45.72C280.147 46.0933 280.32 46.3733 280.32 46.56C280.32 46.7467 280.253 46.88 280.12 46.96C280.013 47.04 279.72 47.12 279.24 47.2C278.76 47.2533 278.213 47.32 277.6 47.4C277.013 47.4533 276.453 47.5067 275.92 47.56C275.413 47.6133 275.053 47.6533 274.84 47.68C275.133 48.2933 275.533 49 276.04 49.8C276.573 50.6 277.08 51.2533 277.56 51.76C277.667 51.4667 277.84 51.2267 278.08 51.04C278.347 50.8267 278.64 50.72 278.96 50.72C279.333 50.72 279.653 50.8533 279.92 51.12C280.187 51.36 280.32 51.6667 280.32 52.04ZM280.2 35.32C280.2 35.8533 280.027 36.28 279.68 36.6C279.333 36.92 278.893 37.08 278.36 37.08H259.44V35.44H267.2V32.72H261.52V31.04H267.2V28.04H271.6V31.04H274C274 30.5067 274.187 30.0667 274.56 29.72C274.96 29.3467 275.427 29.16 275.96 29.16C276.413 29.16 276.84 29.3467 277.24 29.72C277.64 30.0933 277.84 30.5067 277.84 30.96C277.84 31.4933 277.627 31.92 277.2 32.24C276.8 32.56 276.347 32.72 275.84 32.72H271.6V35.44H276.44C276.493 34.9067 276.693 34.4667 277.04 34.12C277.387 33.7467 277.827 33.56 278.36 33.56C278.84 33.56 279.267 33.7333 279.64 34.08C280.013 34.4267 280.2 34.84 280.2 35.32ZM281.16 27.32H258.72L258.64 56H276.44C277.72 56 278.693 55.7067 279.36 55.12C280.053 54.5067 280.52 53.72 280.76 52.76C281.027 51.7733 281.16 50.7467 281.16 49.68V27.32ZM286 49.4C286 52.5733 285.28 54.8133 283.84 56.12C282.4 57.4533 280.107 58.12 276.96 58.12H254.08L254.16 25.16H286V49.4Z" fill="#4E301B"/>
<path d="M88.048 74.3701C88.048 74.5008 87.992 74.5661 87.88 74.5661C87.8427 74.5661 87.81 74.5661 87.782 74.5661C87.754 74.5568 87.7307 74.5334 87.712 74.4961C87.7027 74.4774 87.6887 74.4354 87.67 74.3701C87.6607 74.2954 87.656 74.2441 87.656 74.2161C87.6093 73.9361 87.5393 73.6281 87.446 73.2921C87.362 72.9468 87.2267 72.6668 87.04 72.4521C86.9467 72.3401 86.788 72.2654 86.564 72.2281C86.34 72.1908 86.1113 72.1721 85.878 72.1721C85.6447 72.1721 85.4627 72.1721 85.332 72.1721C85.192 72.1721 85.0193 72.1721 84.814 72.1721C84.618 72.1721 84.4407 72.2093 84.282 72.284C84.1327 72.3587 84.058 72.5081 84.058 72.7321C84.058 74.1414 84.0627 75.5554 84.072 76.9741C84.0907 78.3834 84.1 79.7974 84.1 81.2161C84.1 81.3374 84.1513 81.4308 84.254 81.4961C84.3567 81.5521 84.4733 81.5894 84.604 81.6081C84.7347 81.6268 84.842 81.6361 84.926 81.6361C85.0007 81.6361 85.066 81.6361 85.122 81.6361C85.1873 81.6268 85.2527 81.6221 85.318 81.6221C85.4113 81.6221 85.458 81.6641 85.458 81.7481C85.458 81.7854 85.458 81.8414 85.458 81.9161C85.458 81.9814 85.4253 82.0141 85.36 82.0141C85.024 82.0141 84.688 82.0094 84.352 82.0001C84.0253 81.9814 83.694 81.9721 83.358 81.9721C82.91 81.9721 82.4527 81.9861 81.986 82.0141C81.8833 82.0141 81.776 82.0188 81.664 82.0281C81.552 82.0374 81.4447 82.0421 81.342 82.0421C81.258 82.0421 81.216 81.9908 81.216 81.8881C81.216 81.7761 81.23 81.7061 81.258 81.6781C81.286 81.6501 81.3513 81.6361 81.454 81.6361C81.4727 81.6361 81.4913 81.6408 81.51 81.6501C81.538 81.6501 81.5567 81.6501 81.566 81.6501C81.6687 81.6501 81.7993 81.6408 81.958 81.6221C82.1167 81.6034 82.2567 81.5661 82.378 81.5101C82.5087 81.4448 82.574 81.3468 82.574 81.2161C82.5833 80.4974 82.588 79.7788 82.588 79.0601C82.5973 78.3414 82.602 77.6228 82.602 76.9041C82.602 76.1948 82.5973 75.4901 82.588 74.7901C82.5787 74.0808 82.574 73.3714 82.574 72.6621C82.574 72.5501 82.5273 72.4473 82.434 72.354C82.35 72.2607 82.2567 72.2094 82.154 72.2001C82.07 72.1814 81.9813 72.1721 81.888 72.1721C81.804 72.1721 81.7153 72.1721 81.622 72.1721H80.376C80.04 72.1721 79.788 72.2561 79.62 72.4241C79.4613 72.5828 79.3493 72.7928 79.284 73.0541C79.2187 73.3061 79.158 73.5674 79.102 73.8381C79.102 73.8568 79.088 73.922 79.06 74.034C79.0413 74.1367 79.018 74.2394 78.99 74.3421C78.9713 74.4354 78.9573 74.4868 78.948 74.4961C78.9107 74.5428 78.8547 74.5661 78.78 74.5661C78.6773 74.5661 78.626 74.5148 78.626 74.4121C78.626 74.3748 78.626 74.3281 78.626 74.2721C78.6353 74.2068 78.6447 74.1321 78.654 74.048C78.6727 73.8333 78.6867 73.5768 78.696 73.2781C78.7147 72.9701 78.7287 72.6854 78.738 72.4241C78.7473 72.3308 78.752 72.2374 78.752 72.1441C78.752 72.0508 78.7567 71.9668 78.766 71.8921C78.766 71.7614 78.8453 71.7054 79.004 71.7241C79.6853 71.7894 80.3713 71.8221 81.062 71.8221C81.762 71.8128 82.4527 71.8081 83.134 71.8081H84.324C84.7067 71.8081 85.0893 71.8081 85.472 71.8081C85.864 71.7988 86.256 71.7894 86.648 71.7801C86.816 71.7708 86.9887 71.7661 87.166 71.7661C87.3527 71.7568 87.5347 71.7521 87.712 71.7521C87.8333 71.7521 87.9033 71.7988 87.922 71.8921C87.9313 71.9201 87.9407 72.0228 87.95 72.2001C87.9593 72.3681 87.9687 72.5641 87.978 72.7881C87.9873 73.0028 87.992 73.2081 87.992 73.4041C88.0013 73.5908 88.006 73.7214 88.006 73.7961C88.0153 73.8894 88.0247 73.9827 88.034 74.076C88.0433 74.1693 88.048 74.2674 88.048 74.3701ZM93.234 80.3621C93.1967 79.9421 93.1733 79.5221 93.164 79.1021C93.164 78.6728 93.1593 78.2434 93.15 77.8141H92.954C92.6647 77.8141 92.3427 77.8608 91.988 77.9541C91.6427 78.0381 91.3113 78.1688 90.994 78.3461C90.6767 78.5234 90.4153 78.7474 90.21 79.0181C90.014 79.2794 89.916 79.5828 89.916 79.9281C89.916 80.3761 90.042 80.7168 90.294 80.9501C90.546 81.1741 90.8867 81.2861 91.316 81.2861C91.5213 81.2861 91.7453 81.2394 91.988 81.1461C92.2307 81.0434 92.464 80.9221 92.688 80.7821C92.912 80.6421 93.094 80.5021 93.234 80.3621ZM95.684 81.2581C95.684 81.2954 95.6793 81.3234 95.67 81.3421C95.5767 81.5474 95.418 81.7061 95.194 81.8181C94.9793 81.9208 94.7647 81.9721 94.55 81.9721C94.158 81.9721 93.8733 81.8601 93.696 81.6361C93.528 81.4028 93.3927 81.1181 93.29 80.7821C92.9353 81.1088 92.5433 81.3841 92.114 81.6081C91.6847 81.8228 91.2227 81.9301 90.728 81.9301C90.3827 81.9301 90.056 81.8648 89.748 81.7341C89.4493 81.5941 89.2067 81.3934 89.02 81.1321C88.8333 80.8708 88.74 80.5534 88.74 80.1801C88.74 79.7881 88.838 79.4521 89.034 79.1721C89.2393 78.8828 89.496 78.6401 89.804 78.4441C90.1213 78.2388 90.4573 78.0754 90.812 77.9541C91.176 77.8234 91.5167 77.7254 91.834 77.6601C92.0487 77.6134 92.268 77.5714 92.492 77.534C92.716 77.4967 92.9353 77.4594 93.15 77.4221C93.15 77.1608 93.136 76.8574 93.108 76.5121C93.0893 76.1668 93.0193 75.8821 92.898 75.6581C92.7767 75.4434 92.6133 75.2521 92.408 75.0841C92.2027 74.9161 91.974 74.8321 91.722 74.8321C91.2927 74.8321 90.9567 74.9441 90.714 75.1681C90.4713 75.3921 90.2987 75.7094 90.196 76.1201C90.1867 76.1668 90.1773 76.2181 90.168 76.2741C90.168 76.3208 90.1633 76.3674 90.154 76.4141C90.1447 76.4701 90.1073 76.5214 90.042 76.5681C89.986 76.6054 89.9253 76.6241 89.86 76.6241C89.6827 76.6241 89.5193 76.5821 89.37 76.4981C89.23 76.4141 89.16 76.2741 89.16 76.0781C89.16 75.9661 89.1787 75.8681 89.216 75.784C89.3373 75.4948 89.5333 75.2568 89.804 75.0701C90.0747 74.8741 90.3733 74.7248 90.7 74.6221C91.036 74.5194 91.3487 74.4681 91.638 74.4681C92.142 74.4681 92.5993 74.5614 93.01 74.7481C93.4207 74.9348 93.7473 75.2101 93.99 75.5741C94.242 75.9288 94.368 76.3768 94.368 76.9181C94.368 77.5248 94.3633 78.1361 94.354 78.7521C94.354 79.3681 94.3727 79.9841 94.41 80.6001C94.4193 80.8054 94.4613 80.9874 94.536 81.1461C94.6107 81.2954 94.7647 81.3701 94.998 81.3701C95.1193 81.3701 95.2453 81.3421 95.376 81.2861C95.516 81.2208 95.6047 81.1881 95.642 81.1881C95.67 81.1881 95.684 81.2114 95.684 81.2581ZM100.877 81.3561C100.877 81.4401 100.812 81.5241 100.681 81.6081C100.56 81.6921 100.411 81.7668 100.233 81.8321C100.056 81.8974 99.8833 81.9488 99.7153 81.9861C99.5566 82.0234 99.4399 82.0421 99.3653 82.0421C98.8799 82.0421 98.5019 81.9814 98.2313 81.8601C97.9699 81.7388 97.7833 81.5381 97.6713 81.2581C97.5686 80.9781 97.5173 80.6001 97.5173 80.1241C97.5173 79.3494 97.5173 78.5748 97.5173 77.8001C97.5266 77.0161 97.5359 76.2368 97.5453 75.4621H96.5373C96.4719 75.4621 96.4159 75.4808 96.3693 75.5181C96.3319 75.5461 96.2899 75.5601 96.2432 75.5601C96.1966 75.5601 96.1733 75.5274 96.1733 75.4621C96.1733 75.4248 96.1966 75.3501 96.2432 75.2381C96.2993 75.1261 96.3366 75.0514 96.3553 75.0141C96.3833 75.0234 96.4253 75.0281 96.4813 75.0281H97.5733L97.5873 73.2501C97.8019 73.1101 97.9979 72.9561 98.1753 72.7881C98.3526 72.6108 98.5299 72.4334 98.7073 72.2561C98.7259 72.2374 98.7446 72.2234 98.7633 72.2141C98.7819 72.1954 98.8006 72.1861 98.8193 72.1861C98.9033 72.1861 98.9453 72.2188 98.9453 72.284L98.8613 75.0141C99.1599 75.0141 99.4539 75.0094 99.7433 75.0001C100.042 74.9908 100.336 74.9861 100.625 74.9861C100.747 74.9861 100.807 75.0561 100.807 75.1961C100.807 75.3734 100.728 75.4621 100.569 75.4621H98.8613C98.8613 76.1714 98.8566 76.8853 98.8473 77.604C98.8473 78.3133 98.8473 79.0274 98.8473 79.7461V80.8241C98.8473 81.0574 98.9453 81.2208 99.1413 81.3141C99.3373 81.3981 99.5286 81.4401 99.7153 81.4401C99.9766 81.4401 100.233 81.3981 100.485 81.3141C100.513 81.2954 100.555 81.2768 100.611 81.2581C100.667 81.2394 100.709 81.2301 100.737 81.2301C100.831 81.2301 100.877 81.2721 100.877 81.3561ZM106.702 77.0861C106.693 76.7034 106.66 76.3394 106.604 75.9941C106.548 75.6394 106.413 75.3501 106.198 75.1261C105.984 74.8928 105.634 74.7761 105.148 74.7761C104.71 74.7761 104.35 74.8974 104.07 75.1401C103.8 75.3734 103.59 75.6721 103.44 76.0361C103.291 76.3908 103.179 76.7548 103.104 77.1281C103.338 77.1374 103.566 77.1468 103.79 77.1561C104.014 77.1561 104.238 77.1561 104.462 77.1561C104.836 77.1561 105.209 77.1514 105.582 77.1421C105.956 77.1234 106.329 77.1048 106.702 77.0861ZM108.312 80.2921C108.312 80.3388 108.303 80.3668 108.284 80.3761C108.256 80.4694 108.186 80.5814 108.074 80.7121C107.972 80.8428 107.855 80.9688 107.724 81.09C107.594 81.2021 107.486 81.2861 107.402 81.3421C107.094 81.5568 106.744 81.7294 106.352 81.8601C105.97 81.9908 105.587 82.0561 105.204 82.0561C104.887 82.0561 104.532 82.0048 104.14 81.9021C103.758 81.7994 103.431 81.6594 103.16 81.4821C102.638 81.1368 102.255 80.6841 102.012 80.1241C101.77 79.5641 101.648 78.9808 101.648 78.3741C101.648 77.6834 101.784 77.0441 102.054 76.4561C102.325 75.8681 102.759 75.3921 103.356 75.0281C103.627 74.8694 103.93 74.7388 104.266 74.6361C104.602 74.5241 104.924 74.4681 105.232 74.4681C105.783 74.4681 106.268 74.5801 106.688 74.8041C107.108 75.0281 107.435 75.3454 107.668 75.7561C107.911 76.1574 108.032 76.6381 108.032 77.1981C108.032 77.3568 107.995 77.4594 107.92 77.5061C107.855 77.5528 107.752 77.576 107.612 77.576C107.426 77.576 107.239 77.5714 107.052 77.562C106.866 77.5527 106.679 77.5434 106.492 77.534C106.231 77.5153 105.97 77.5061 105.708 77.5061C105.456 77.5061 105.2 77.5061 104.938 77.5061C104.621 77.5061 104.304 77.5061 103.986 77.5061C103.669 77.5061 103.352 77.5153 103.034 77.534C103.025 77.6834 103.016 77.8281 103.006 77.9681C102.997 78.1081 102.992 78.2528 102.992 78.4021C102.992 78.7474 103.034 79.1068 103.118 79.4801C103.202 79.8441 103.338 80.1848 103.524 80.5021C103.711 80.8101 103.949 81.0621 104.238 81.2581C104.528 81.4448 104.878 81.5381 105.288 81.5381C105.708 81.5381 106.11 81.4728 106.492 81.3421C106.875 81.2114 107.225 81.0014 107.542 80.7121C107.626 80.6281 107.701 80.5394 107.766 80.4461C107.841 80.3434 107.92 80.2548 108.004 80.1801C108.051 80.1334 108.102 80.1101 108.158 80.1101C108.205 80.1101 108.242 80.1288 108.27 80.1661C108.298 80.2034 108.312 80.2454 108.312 80.2921ZM114.415 79.9981C114.415 80.4181 114.322 80.7633 114.135 81.034C113.948 81.2954 113.706 81.4961 113.407 81.6361C113.108 81.7761 112.782 81.8741 112.427 81.9301C112.072 81.9861 111.727 82.0141 111.391 82.0141C111.083 82.0141 110.775 81.9814 110.467 81.9161C110.168 81.8508 109.865 81.8041 109.557 81.7761C109.492 81.5241 109.426 81.272 109.361 81.0201C109.305 80.7681 109.24 80.5208 109.165 80.2781C109.156 80.2501 109.132 80.1848 109.095 80.0821C109.067 79.9794 109.053 79.9234 109.053 79.9141C109.053 79.8394 109.076 79.7881 109.123 79.7601C109.17 79.7228 109.226 79.7041 109.291 79.7041C109.356 79.7041 109.403 79.7274 109.431 79.7741C109.487 79.8394 109.534 79.9281 109.571 80.0401C109.618 80.1521 109.66 80.2501 109.697 80.3341C109.772 80.4834 109.837 80.6001 109.893 80.6841C109.949 80.7588 110.038 80.8568 110.159 80.9781C110.523 81.3608 110.976 81.5521 111.517 81.5521C111.816 81.5521 112.086 81.5194 112.329 81.4541C112.581 81.3888 112.782 81.2674 112.931 81.09C113.08 80.9033 113.155 80.6374 113.155 80.2921C113.155 79.9934 113.062 79.7461 112.875 79.5501C112.688 79.3448 112.446 79.1628 112.147 79.0041C111.858 78.8454 111.55 78.6914 111.223 78.5421C110.896 78.3928 110.584 78.2294 110.285 78.0521C109.996 77.8654 109.758 77.6414 109.571 77.3801C109.384 77.1188 109.291 76.8014 109.291 76.4281C109.291 75.9708 109.408 75.5974 109.641 75.3081C109.884 75.0188 110.192 74.8041 110.565 74.6641C110.938 74.5148 111.326 74.4401 111.727 74.4401C111.988 74.4401 112.222 74.4728 112.427 74.5381C112.642 74.6034 112.866 74.6781 113.099 74.7621C113.174 74.7901 113.248 74.8088 113.323 74.8181C113.398 74.8274 113.472 74.8321 113.547 74.8321C113.594 74.8321 113.636 74.8321 113.673 74.8321C113.71 74.8321 113.748 74.8274 113.785 74.8181C113.813 74.9861 113.836 75.1588 113.855 75.3361C113.883 75.5041 113.906 75.6767 113.925 75.854C113.934 75.9193 113.944 75.9988 113.953 76.0921C113.972 76.1761 113.981 76.2554 113.981 76.3301C113.981 76.3954 113.967 76.4654 113.939 76.5401C113.911 76.6054 113.855 76.6381 113.771 76.6381C113.706 76.6381 113.65 76.6334 113.603 76.6241C113.566 76.6054 113.533 76.5634 113.505 76.4981C113.458 76.4048 113.416 76.3068 113.379 76.2041C113.351 76.0921 113.318 75.9894 113.281 75.8961C113.16 75.5694 112.95 75.3081 112.651 75.1121C112.352 74.9068 112.03 74.8041 111.685 74.8041C111.246 74.8041 110.915 74.9348 110.691 75.1961C110.467 75.4481 110.355 75.7888 110.355 76.2181C110.355 76.3674 110.392 76.5121 110.467 76.6521C110.551 76.7921 110.644 76.9134 110.747 77.0161C110.943 77.2028 111.172 77.3474 111.433 77.4501C111.704 77.5528 111.96 77.6554 112.203 77.7581C112.52 77.8981 112.847 78.0661 113.183 78.2621C113.528 78.4581 113.818 78.6961 114.051 78.9761C114.294 79.2561 114.415 79.5968 114.415 79.9981ZM123.631 81.8461C123.631 81.8928 123.608 81.9301 123.561 81.9581C123.515 81.9768 123.468 81.9861 123.421 81.9861C123.188 81.9861 122.95 81.9814 122.707 81.9721C122.474 81.9534 122.236 81.9441 121.993 81.9441C121.723 81.9441 121.447 81.9534 121.167 81.9721C120.897 81.9908 120.626 82.0001 120.355 82.0001C120.309 82.0001 120.276 81.9721 120.257 81.9161C120.248 81.8508 120.243 81.7994 120.243 81.7621C120.243 81.6968 120.276 81.6641 120.341 81.6641C120.444 81.6641 120.542 81.6688 120.635 81.6781C120.738 81.6781 120.836 81.6781 120.929 81.6781C121.051 81.6781 121.144 81.6408 121.209 81.5661C121.284 81.4821 121.326 81.3841 121.335 81.2721C121.354 81.0388 121.359 80.8054 121.349 80.5721C121.349 80.3388 121.349 80.1101 121.349 79.8861C121.349 79.6061 121.349 79.3308 121.349 79.0601C121.349 78.7801 121.349 78.5001 121.349 78.2201C121.349 77.9401 121.349 77.6601 121.349 77.3801C121.349 77.1001 121.34 76.8201 121.321 76.5401C121.312 76.4188 121.298 76.3021 121.279 76.1901C121.27 76.0688 121.247 75.952 121.209 75.84C121.116 75.588 120.962 75.3968 120.747 75.2661C120.542 75.1261 120.304 75.0561 120.033 75.0561C119.716 75.0561 119.403 75.1401 119.095 75.3081C118.787 75.4668 118.531 75.6674 118.325 75.9101C118.101 76.1714 117.938 76.4001 117.835 76.5961C117.733 76.7921 117.667 76.9974 117.639 77.2121C117.621 77.4268 117.611 77.7068 117.611 78.0521V80.5161C117.611 80.6188 117.607 80.7634 117.597 80.9501C117.597 81.1368 117.621 81.3048 117.667 81.4541C117.723 81.6034 117.831 81.6781 117.989 81.6781C118.083 81.6781 118.171 81.6734 118.255 81.6641C118.339 81.6548 118.428 81.6501 118.521 81.6501C118.605 81.6501 118.647 81.6968 118.647 81.7901C118.647 81.8368 118.638 81.8834 118.619 81.9301C118.61 81.9674 118.577 81.9861 118.521 81.9861C118.204 81.9861 117.877 81.9814 117.541 81.9721C117.215 81.9534 116.888 81.9441 116.561 81.9441C116.263 81.9441 115.959 81.9581 115.651 81.9861C115.614 81.9861 115.581 81.9908 115.553 82.0001C115.525 82.0001 115.493 82.0001 115.455 82.0001C115.409 82.0001 115.371 81.9768 115.343 81.9301C115.325 81.8741 115.315 81.8274 115.315 81.7901C115.315 81.6874 115.367 81.6361 115.469 81.6361C115.525 81.6361 115.581 81.6408 115.637 81.6501C115.693 81.6501 115.754 81.6501 115.819 81.6501C115.95 81.6501 116.085 81.6314 116.225 81.5941C116.375 81.5474 116.454 81.4401 116.463 81.2721C116.482 80.9641 116.487 80.6561 116.477 80.3481C116.477 80.0401 116.477 79.7368 116.477 79.4381C116.477 78.8594 116.477 78.2854 116.477 77.7161C116.487 77.1468 116.491 76.5774 116.491 76.0081C116.491 75.4108 116.487 74.8181 116.477 74.2301C116.468 73.6328 116.459 73.0354 116.449 72.4381C116.449 72.3354 116.431 72.2234 116.393 72.1021C116.356 71.9714 116.272 71.9061 116.141 71.9061C116.011 71.9061 115.875 71.9154 115.735 71.9341C115.595 71.9528 115.455 71.9621 115.315 71.9621C115.231 71.9621 115.189 71.9248 115.189 71.8501C115.189 71.7661 115.231 71.7101 115.315 71.6821C115.502 71.6354 115.684 71.5981 115.861 71.5701C116.048 71.5421 116.23 71.5094 116.407 71.4721C116.566 71.4348 116.753 71.3834 116.967 71.3181C117.191 71.2434 117.378 71.2061 117.527 71.2061C117.583 71.2061 117.616 71.2248 117.625 71.2621C117.635 71.2901 117.639 71.3274 117.639 71.3741C117.639 72.1394 117.639 72.9048 117.639 73.6701C117.639 74.4354 117.63 75.2008 117.611 75.9661C117.817 75.7514 118.064 75.5368 118.353 75.3221C118.652 75.1074 118.969 74.9301 119.305 74.7901C119.641 74.6408 119.959 74.5661 120.257 74.5661C120.864 74.5661 121.34 74.6548 121.685 74.8321C122.031 75.0094 122.273 75.2848 122.413 75.6581C122.553 76.0221 122.623 76.4981 122.623 77.0861C122.623 77.7861 122.619 78.4861 122.609 79.1861C122.609 79.8767 122.609 80.5721 122.609 81.2721C122.609 81.4214 122.647 81.5288 122.721 81.5941C122.805 81.6501 122.922 81.6781 123.071 81.6781C123.137 81.6781 123.197 81.6734 123.253 81.6641C123.319 81.6548 123.384 81.6501 123.449 81.6501C123.496 81.6501 123.538 81.6734 123.575 81.7201C123.613 81.7574 123.631 81.7994 123.631 81.8461ZM128.206 81.7901C128.206 81.8368 128.192 81.8834 128.164 81.9301C128.136 81.9674 128.098 81.9861 128.052 81.9861C127.79 81.9861 127.529 81.9814 127.268 81.9721C127.016 81.9534 126.754 81.9441 126.484 81.9441H126.106C125.826 81.9441 125.546 81.9534 125.266 81.9721C124.995 81.9814 124.724 81.9861 124.454 81.9861C124.416 81.9861 124.388 81.9628 124.37 81.9161C124.36 81.8694 124.356 81.8321 124.356 81.8041C124.356 81.7574 124.36 81.7248 124.37 81.7061C124.379 81.6781 124.407 81.6594 124.454 81.6501C124.5 81.6314 124.552 81.6268 124.608 81.6361C124.673 81.6361 124.734 81.6361 124.79 81.6361C124.855 81.6361 124.916 81.6408 124.972 81.6501C125.028 81.6501 125.088 81.6501 125.154 81.6501C125.284 81.6501 125.401 81.6221 125.504 81.5661C125.616 81.5008 125.672 81.3934 125.672 81.2441V75.6441C125.672 75.4854 125.644 75.3641 125.588 75.2801C125.532 75.1868 125.415 75.1401 125.238 75.1401C125.107 75.1401 124.972 75.1494 124.832 75.1681C124.701 75.1774 124.57 75.1914 124.44 75.2101C124.365 75.2101 124.328 75.1681 124.328 75.0841C124.328 74.9908 124.365 74.9301 124.44 74.9021C124.552 74.8648 124.668 74.8414 124.79 74.8321C124.92 74.8134 125.042 74.7948 125.154 74.7761C125.415 74.7294 125.676 74.6781 125.938 74.6221C126.199 74.5661 126.456 74.5054 126.708 74.4401C126.736 74.4308 126.773 74.4261 126.82 74.4261C126.922 74.4261 126.974 74.4821 126.974 74.5941C126.974 75.6954 126.969 76.8014 126.96 77.9121C126.96 79.0228 126.96 80.1334 126.96 81.2441C126.96 81.3934 127.025 81.5008 127.156 81.5661C127.296 81.6221 127.426 81.6501 127.548 81.6501C127.641 81.6501 127.734 81.6454 127.828 81.6361C127.93 81.6268 128.028 81.6221 128.122 81.6221C128.159 81.6221 128.182 81.6454 128.192 81.6921C128.201 81.7388 128.206 81.7714 128.206 81.7901ZM127.072 72.1021C127.072 72.3354 126.988 72.5361 126.82 72.7041C126.652 72.8628 126.451 72.9421 126.218 72.9421C125.984 72.9421 125.784 72.8628 125.616 72.7041C125.448 72.5361 125.364 72.3354 125.364 72.1021C125.364 71.8688 125.448 71.6728 125.616 71.5141C125.784 71.3461 125.984 71.2621 126.218 71.2621C126.451 71.2621 126.652 71.3461 126.82 71.5141C126.988 71.6728 127.072 71.8688 127.072 72.1021ZM137.218 81.7901C137.218 81.9114 137.148 81.9721 137.008 81.9721C136.803 81.9721 136.593 81.9674 136.378 81.9581C136.163 81.9394 135.949 81.9301 135.734 81.9301C135.417 81.9301 135.09 81.9394 134.754 81.9581C134.427 81.9674 134.101 81.9721 133.774 81.9721C133.737 81.9721 133.713 81.9441 133.704 81.8881C133.695 81.8228 133.69 81.7714 133.69 81.7341C133.69 81.6594 133.737 81.6221 133.83 81.6221C133.923 81.6221 133.998 81.6221 134.054 81.6221C134.101 81.6221 134.147 81.6268 134.194 81.6361C134.25 81.6361 134.301 81.6361 134.348 81.6361C134.619 81.6361 134.768 81.5008 134.796 81.2301C134.824 80.6794 134.833 80.1241 134.824 79.5641C134.824 79.0041 134.824 78.4488 134.824 77.8981C134.824 77.7954 134.824 77.6927 134.824 77.59C134.824 77.478 134.824 77.3708 134.824 77.2681C134.815 77.0534 134.801 76.7921 134.782 76.4841C134.763 76.1668 134.721 75.9101 134.656 75.7141C134.507 75.2288 134.18 74.9861 133.676 74.9861C133.219 74.9861 132.799 75.1028 132.416 75.3361C132.033 75.5694 131.702 75.8634 131.422 76.2181C131.413 76.8994 131.408 77.5761 131.408 78.2481C131.408 78.9201 131.408 79.5921 131.408 80.2641V81.2301C131.408 81.3701 131.469 81.4728 131.59 81.5381C131.711 81.6034 131.833 81.6361 131.954 81.6361C132.029 81.6361 132.099 81.6314 132.164 81.6221C132.239 81.6034 132.309 81.5941 132.374 81.5941C132.411 81.5941 132.435 81.6174 132.444 81.6641C132.453 81.7108 132.458 81.7481 132.458 81.7761C132.458 81.8134 132.444 81.8554 132.416 81.9021C132.397 81.9488 132.36 81.9721 132.304 81.9721C132.099 81.9721 131.893 81.9674 131.688 81.9581C131.492 81.9394 131.291 81.9301 131.086 81.9301C130.769 81.9301 130.451 81.9394 130.134 81.9581C129.817 81.9674 129.495 81.9721 129.168 81.9721C129.121 81.9721 129.093 81.9441 129.084 81.8881C129.084 81.8228 129.084 81.7714 129.084 81.7341C129.084 81.6594 129.126 81.6221 129.21 81.6221C129.294 81.6221 129.359 81.6221 129.406 81.6221C129.453 81.6221 129.499 81.6268 129.546 81.6361C129.593 81.6361 129.639 81.6361 129.686 81.6361C129.957 81.6361 130.106 81.5008 130.134 81.2301C130.143 81.0994 130.148 80.9688 130.148 80.8381C130.148 80.7074 130.148 80.5768 130.148 80.4461C130.148 79.6434 130.148 78.8408 130.148 78.0381C130.148 77.2261 130.143 76.4188 130.134 75.6161C130.134 75.4854 130.106 75.3548 130.05 75.2241C129.994 75.0934 129.887 75.0281 129.728 75.0281C129.607 75.0281 129.49 75.0468 129.378 75.0841C129.266 75.1214 129.149 75.1401 129.028 75.1401C128.963 75.1401 128.93 75.0934 128.93 75.0001C128.93 74.9814 128.93 74.9628 128.93 74.9441C128.939 74.9161 128.949 74.8974 128.958 74.8881C128.967 74.8788 128.981 74.8741 129 74.8741C129.019 74.8648 129.033 74.8554 129.042 74.8461C129.21 74.7994 129.383 74.7668 129.56 74.7481C129.747 74.7294 129.924 74.7014 130.092 74.6641C130.251 74.6361 130.405 74.5988 130.554 74.5521C130.703 74.4961 130.853 74.4681 131.002 74.4681C131.067 74.4681 131.119 74.5008 131.156 74.5661C131.203 74.6501 131.24 74.7714 131.268 74.9301C131.296 75.0794 131.315 75.2334 131.324 75.3921C131.343 75.5508 131.352 75.6813 131.352 75.784C131.557 75.5788 131.8 75.3781 132.08 75.1821C132.369 74.9768 132.668 74.8088 132.976 74.6781C133.293 74.5381 133.601 74.4681 133.9 74.4681C134.759 74.4681 135.337 74.6594 135.636 75.0421C135.944 75.4154 136.098 76.0081 136.098 76.8201C136.098 77.5481 136.093 78.2761 136.084 79.0041C136.084 79.7321 136.084 80.4601 136.084 81.1881C136.084 81.3654 136.135 81.4868 136.238 81.5521C136.35 81.6081 136.481 81.6361 136.63 81.6361C136.705 81.6361 136.779 81.6314 136.854 81.6221C136.929 81.6034 136.999 81.5941 137.064 81.5941C137.12 81.5941 137.157 81.6174 137.176 81.6641C137.204 81.7014 137.218 81.7434 137.218 81.7901ZM142.494 80.3621C142.456 79.9421 142.433 79.5221 142.424 79.1021C142.424 78.6728 142.419 78.2434 142.41 77.8141H142.214C141.924 77.8141 141.602 77.8608 141.248 77.9541C140.902 78.0381 140.571 78.1688 140.254 78.3461C139.936 78.5234 139.675 78.7474 139.47 79.0181C139.274 79.2794 139.176 79.5828 139.176 79.9281C139.176 80.3761 139.302 80.7168 139.554 80.9501C139.806 81.1741 140.146 81.2861 140.576 81.2861C140.781 81.2861 141.005 81.2394 141.248 81.1461C141.49 81.0434 141.724 80.9221 141.948 80.7821C142.172 80.6421 142.354 80.5021 142.494 80.3621ZM144.944 81.2581C144.944 81.2954 144.939 81.3234 144.93 81.3421C144.836 81.5474 144.678 81.7061 144.454 81.8181C144.239 81.9208 144.024 81.9721 143.81 81.9721C143.418 81.9721 143.133 81.8601 142.956 81.6361C142.788 81.4028 142.652 81.1181 142.55 80.7821C142.195 81.1088 141.803 81.3841 141.374 81.6081C140.944 81.8228 140.482 81.9301 139.988 81.9301C139.642 81.9301 139.316 81.8648 139.008 81.7341C138.709 81.5941 138.466 81.3934 138.28 81.1321C138.093 80.8708 138 80.5534 138 80.1801C138 79.7881 138.098 79.4521 138.294 79.1721C138.499 78.8828 138.756 78.6401 139.064 78.4441C139.381 78.2388 139.717 78.0754 140.072 77.9541C140.436 77.8234 140.776 77.7254 141.094 77.6601C141.308 77.6134 141.528 77.5714 141.752 77.534C141.976 77.4967 142.195 77.4594 142.41 77.4221C142.41 77.1608 142.396 76.8574 142.368 76.5121C142.349 76.1668 142.279 75.8821 142.158 75.6581C142.036 75.4434 141.873 75.2521 141.668 75.0841C141.462 74.9161 141.234 74.8321 140.982 74.8321C140.552 74.8321 140.216 74.9441 139.974 75.1681C139.731 75.3921 139.558 75.7094 139.456 76.1201C139.446 76.1668 139.437 76.2181 139.428 76.2741C139.428 76.3208 139.423 76.3674 139.414 76.4141C139.404 76.4701 139.367 76.5214 139.302 76.5681C139.246 76.6054 139.185 76.6241 139.12 76.6241C138.942 76.6241 138.779 76.5821 138.63 76.4981C138.49 76.4141 138.42 76.2741 138.42 76.0781C138.42 75.9661 138.438 75.8681 138.476 75.784C138.597 75.4948 138.793 75.2568 139.064 75.0701C139.334 74.8741 139.633 74.7248 139.96 74.6221C140.296 74.5194 140.608 74.4681 140.898 74.4681C141.402 74.4681 141.859 74.5614 142.27 74.7481C142.68 74.9348 143.007 75.2101 143.25 75.5741C143.502 75.9288 143.628 76.3768 143.628 76.9181C143.628 77.5248 143.623 78.1361 143.614 78.7521C143.614 79.3681 143.632 79.9841 143.67 80.6001C143.679 80.8054 143.721 80.9874 143.796 81.1461C143.87 81.2954 144.024 81.3701 144.258 81.3701C144.379 81.3701 144.505 81.3421 144.636 81.2861C144.776 81.2208 144.864 81.1881 144.902 81.1881C144.93 81.1881 144.944 81.2114 144.944 81.2581ZM159.223 77.6881C159.223 77.7441 159.209 77.7954 159.181 77.8421C159.153 77.8888 159.106 77.9121 159.041 77.9121H158.173V80.9081C157.52 81.1321 156.871 81.3794 156.227 81.6501C155.919 81.7808 155.592 81.8648 155.247 81.9021C154.911 81.9394 154.58 81.9581 154.253 81.9581C153.973 81.9581 153.66 81.9254 153.315 81.8601C152.97 81.7948 152.634 81.7014 152.307 81.5801C151.99 81.4588 151.71 81.3188 151.467 81.1601C150.758 80.6841 150.23 80.068 149.885 79.312C149.549 78.556 149.381 77.7534 149.381 76.9041C149.381 76.1854 149.493 75.5088 149.717 74.8741C149.95 74.2394 150.282 73.6794 150.711 73.1941C151.14 72.7088 151.654 72.3308 152.251 72.0601C152.858 71.7801 153.534 71.6401 154.281 71.6401C154.832 71.6401 155.359 71.7148 155.863 71.8641C155.947 71.8921 156.082 71.9341 156.269 71.9901C156.456 72.0461 156.642 72.1021 156.829 72.1581C157.016 72.2048 157.142 72.2281 157.207 72.2281C157.403 72.2281 157.538 72.2048 157.613 72.1581C157.688 72.1021 157.744 72.0414 157.781 71.9761C157.828 71.9108 157.893 71.8594 157.977 71.8221H158.089C158.164 71.8221 158.206 71.8641 158.215 71.9481C158.234 72.0414 158.238 72.1394 158.229 72.2421C158.229 72.3448 158.229 72.4474 158.229 72.5501C158.229 72.8394 158.234 73.1288 158.243 73.4181C158.262 73.7074 158.271 74.0014 158.271 74.3001C158.271 74.4121 158.266 74.5428 158.257 74.6921C158.257 74.8414 158.173 74.9161 158.005 74.9161C157.949 74.9161 157.898 74.9114 157.851 74.9021C157.814 74.8834 157.776 74.8508 157.739 74.8041C157.73 74.7854 157.706 74.7341 157.669 74.6501C157.632 74.5568 157.594 74.4634 157.557 74.3701C157.52 74.2674 157.492 74.1974 157.473 74.1601C157.221 73.5908 156.852 73.1148 156.367 72.7321C156.115 72.5268 155.793 72.3634 155.401 72.2421C155.018 72.1208 154.664 72.0601 154.337 72.0601C153.712 72.0601 153.18 72.2141 152.741 72.5221C152.302 72.8208 151.948 73.2128 151.677 73.6981C151.406 74.1834 151.21 74.7061 151.089 75.2661C150.968 75.8261 150.907 76.3674 150.907 76.8901C150.907 77.4408 150.972 77.9821 151.103 78.5141C151.234 79.0461 151.434 79.5268 151.705 79.9561C151.985 80.3854 152.349 80.7308 152.797 80.9921C153.245 81.2441 153.782 81.3701 154.407 81.3701C154.594 81.3701 154.818 81.3514 155.079 81.3141C155.34 81.2768 155.602 81.2113 155.863 81.118C156.124 81.0247 156.339 80.8988 156.507 80.7401C156.684 80.5814 156.773 80.3808 156.773 80.1381V78.2901C156.773 78.1408 156.698 78.0474 156.549 78.0101C156.409 77.9634 156.288 77.9401 156.185 77.9401C156.045 77.9401 155.905 77.9494 155.765 77.9681C155.625 77.9774 155.485 77.9821 155.345 77.9821C155.27 77.9821 155.219 77.9588 155.191 77.9121C155.172 77.8654 155.163 77.8094 155.163 77.7441C155.163 77.6881 155.172 77.6367 155.191 77.59C155.21 77.534 155.256 77.5061 155.331 77.5061C155.48 77.5061 155.625 77.5107 155.765 77.5201C155.905 77.5201 156.05 77.5201 156.199 77.5201H157.193C157.352 77.5201 157.51 77.5201 157.669 77.5201C157.828 77.5201 157.986 77.5154 158.145 77.5061C158.304 77.5061 158.458 77.5014 158.607 77.4921C158.756 77.4734 158.906 77.4641 159.055 77.4641C159.111 77.4641 159.153 77.492 159.181 77.548C159.209 77.5947 159.223 77.6414 159.223 77.6881ZM166.073 78.3041C166.073 77.9028 166.04 77.5014 165.975 77.1001C165.919 76.6894 165.807 76.3114 165.639 75.9661C165.48 75.6208 165.247 75.3454 164.939 75.1401C164.631 74.9254 164.229 74.8181 163.735 74.8181C163.268 74.8181 162.885 74.9301 162.587 75.1541C162.297 75.3781 162.069 75.6674 161.901 76.0221C161.742 76.3768 161.63 76.7594 161.565 77.1701C161.509 77.5808 161.481 77.9681 161.481 78.3321C161.481 78.7334 161.509 79.1348 161.565 79.5361C161.63 79.9374 161.747 80.3014 161.915 80.6281C162.083 80.9454 162.321 81.2021 162.629 81.3981C162.946 81.5941 163.352 81.6921 163.847 81.6921C164.332 81.6921 164.719 81.5894 165.009 81.3841C165.307 81.1788 165.531 80.9081 165.681 80.5721C165.839 80.2361 165.942 79.8721 165.989 79.4801C166.045 79.0788 166.073 78.6868 166.073 78.3041ZM167.515 78.3461C167.515 79.0461 167.347 79.6761 167.011 80.2361C166.684 80.7961 166.236 81.2394 165.667 81.5661C165.107 81.8928 164.477 82.0561 163.777 82.0561C163.095 82.0561 162.479 81.8928 161.929 81.5661C161.378 81.2301 160.939 80.7868 160.613 80.2361C160.286 79.6761 160.123 79.0554 160.123 78.3741C160.123 77.6741 160.281 77.0301 160.599 76.4421C160.916 75.8448 161.35 75.3641 161.901 75.0001C162.461 74.6361 163.105 74.4541 163.833 74.4541C164.617 74.4541 165.284 74.6221 165.835 74.9581C166.385 75.2848 166.801 75.7421 167.081 76.3301C167.37 76.9088 167.515 77.5808 167.515 78.3461ZM173.256 81.3561C173.256 81.4401 173.191 81.5241 173.06 81.6081C172.939 81.6921 172.789 81.7668 172.612 81.8321C172.435 81.8974 172.262 81.9488 172.094 81.9861C171.935 82.0234 171.819 82.0421 171.744 82.0421C171.259 82.0421 170.881 81.9814 170.61 81.8601C170.349 81.7388 170.162 81.5381 170.05 81.2581C169.947 80.9781 169.896 80.6001 169.896 80.1241C169.896 79.3494 169.896 78.5748 169.896 77.8001C169.905 77.0161 169.915 76.2368 169.924 75.4621H168.916C168.851 75.4621 168.795 75.4808 168.748 75.5181C168.711 75.5461 168.669 75.5601 168.622 75.5601C168.575 75.5601 168.552 75.5274 168.552 75.4621C168.552 75.4248 168.575 75.3501 168.622 75.2381C168.678 75.1261 168.715 75.0514 168.734 75.0141C168.762 75.0234 168.804 75.0281 168.86 75.0281H169.952L169.966 73.2501C170.181 73.1101 170.377 72.9561 170.554 72.7881C170.731 72.6108 170.909 72.4334 171.086 72.2561C171.105 72.2374 171.123 72.2234 171.142 72.2141C171.161 72.1954 171.179 72.1861 171.198 72.1861C171.282 72.1861 171.324 72.2188 171.324 72.284L171.24 75.0141C171.539 75.0141 171.833 75.0094 172.122 75.0001C172.421 74.9908 172.715 74.9861 173.004 74.9861C173.125 74.9861 173.186 75.0561 173.186 75.1961C173.186 75.3734 173.107 75.4621 172.948 75.4621H171.24C171.24 76.1714 171.235 76.8853 171.226 77.604C171.226 78.3133 171.226 79.0274 171.226 79.7461V80.8241C171.226 81.0574 171.324 81.2208 171.52 81.3141C171.716 81.3981 171.907 81.4401 172.094 81.4401C172.355 81.4401 172.612 81.3981 172.864 81.3141C172.892 81.2954 172.934 81.2768 172.99 81.2581C173.046 81.2394 173.088 81.2301 173.116 81.2301C173.209 81.2301 173.256 81.2721 173.256 81.3561ZM179.963 78.3041C179.963 77.9028 179.93 77.5014 179.865 77.1001C179.809 76.6894 179.697 76.3114 179.529 75.9661C179.37 75.6208 179.137 75.3454 178.829 75.1401C178.521 74.9254 178.12 74.8181 177.625 74.8181C177.158 74.8181 176.776 74.9301 176.477 75.1541C176.188 75.3781 175.959 75.6674 175.791 76.0221C175.632 76.3768 175.52 76.7594 175.455 77.1701C175.399 77.5808 175.371 77.9681 175.371 78.3321C175.371 78.7334 175.399 79.1348 175.455 79.5361C175.52 79.9374 175.637 80.3014 175.805 80.6281C175.973 80.9454 176.211 81.2021 176.519 81.3981C176.836 81.5941 177.242 81.6921 177.737 81.6921C178.222 81.6921 178.61 81.5894 178.899 81.3841C179.198 81.1788 179.422 80.9081 179.571 80.5721C179.73 80.2361 179.832 79.8721 179.879 79.4801C179.935 79.0788 179.963 78.6868 179.963 78.3041ZM181.405 78.3461C181.405 79.0461 181.237 79.6761 180.901 80.2361C180.574 80.7961 180.126 81.2394 179.557 81.5661C178.997 81.8928 178.367 82.0561 177.667 82.0561C176.986 82.0561 176.37 81.8928 175.819 81.5661C175.268 81.2301 174.83 80.7868 174.503 80.2361C174.176 79.6761 174.013 79.0554 174.013 78.3741C174.013 77.6741 174.172 77.0301 174.489 76.4421C174.806 75.8448 175.24 75.3641 175.791 75.0001C176.351 74.6361 176.995 74.4541 177.723 74.4541C178.507 74.4541 179.174 74.6221 179.725 74.9581C180.276 75.2848 180.691 75.7421 180.971 76.3301C181.26 76.9088 181.405 77.5808 181.405 78.3461ZM193.965 73.7401C193.965 73.8241 193.932 73.8941 193.867 73.9501C193.811 73.9968 193.745 74.0201 193.671 74.0201C193.577 74.0201 193.517 74.0014 193.489 73.9641C193.461 73.9174 193.433 73.8568 193.405 73.7821C193.246 73.2781 193.003 72.9048 192.677 72.6621C192.35 72.4194 191.916 72.298 191.375 72.298H188.827V76.5121C189.256 76.5028 189.685 76.4981 190.115 76.4981C190.544 76.4888 190.973 76.4654 191.403 76.4281C191.683 76.4094 191.958 76.3768 192.229 76.3301C192.499 76.2834 192.77 76.2368 193.041 76.1901H193.069C193.087 76.1901 193.106 76.1994 193.125 76.2181C193.153 76.2274 193.167 76.2414 193.167 76.2601C193.167 76.3254 193.134 76.4421 193.069 76.6101C193.003 76.7688 192.957 76.8808 192.929 76.9461C192.882 77.0581 192.812 77.1141 192.719 77.1141C192.653 77.1141 192.583 77.1141 192.509 77.1141C192.443 77.1048 192.373 77.0954 192.299 77.0861C191.972 77.0488 191.641 77.0301 191.305 77.0301C190.978 77.0208 190.651 77.0161 190.325 77.0161C190.203 77.0161 190.059 77.0161 189.891 77.0161C189.723 77.0161 189.555 77.0301 189.387 77.0581C189.228 77.0861 189.093 77.1468 188.981 77.2401C188.878 77.3241 188.827 77.4548 188.827 77.6321V80.7961C188.827 80.8988 188.85 80.9967 188.897 81.09C188.953 81.174 189.018 81.2534 189.093 81.3281C189.233 81.4494 189.405 81.5241 189.611 81.5521C189.825 81.5708 190.021 81.5801 190.199 81.5801C190.329 81.5801 190.395 81.6501 190.395 81.7901C190.395 81.9394 190.311 82.0141 190.143 82.0141C189.993 82.0141 189.839 82.0094 189.681 82.0001C189.522 81.9814 189.363 81.9721 189.205 81.9721C189.018 81.9721 188.827 81.9721 188.631 81.9721C188.444 81.9628 188.257 81.9581 188.071 81.9581C187.753 81.9581 187.436 81.9721 187.119 82.0001C186.811 82.0188 186.493 82.0281 186.167 82.0281C186.129 82.0281 186.087 82.0141 186.041 81.9861C186.003 81.9488 185.985 81.9068 185.985 81.8601C185.985 81.7948 185.989 81.7434 185.999 81.7061C186.017 81.6594 186.064 81.6314 186.139 81.6221C186.213 81.6034 186.293 81.5941 186.377 81.5941C186.461 81.5848 186.54 81.5754 186.615 81.5661C186.96 81.4914 187.175 81.3561 187.259 81.1601C187.352 80.9548 187.399 80.6934 187.399 80.3761V72.8861C187.399 72.6714 187.324 72.5314 187.175 72.4661C187.025 72.4008 186.848 72.368 186.643 72.368C186.447 72.368 186.279 72.368 186.139 72.368C185.961 72.368 185.873 72.2888 185.873 72.1301C185.873 72.0554 185.882 71.9901 185.901 71.9341C185.929 71.8781 185.985 71.8501 186.069 71.8501C186.237 71.8501 186.405 71.8548 186.573 71.8641C186.75 71.8734 186.923 71.8781 187.091 71.8781H189.555C190.021 71.8781 190.488 71.8734 190.955 71.8641C191.431 71.8454 191.902 71.8361 192.369 71.8361C192.798 71.8361 193.227 71.8221 193.657 71.7941C193.703 72.0741 193.764 72.4008 193.839 72.7741C193.923 73.1474 193.965 73.4694 193.965 73.7401ZM199.164 80.3621C199.126 79.9421 199.103 79.5221 199.094 79.1021C199.094 78.6728 199.089 78.2434 199.08 77.8141H198.884C198.594 77.8141 198.272 77.8608 197.918 77.9541C197.572 78.0381 197.241 78.1688 196.924 78.3461C196.606 78.5234 196.345 78.7474 196.14 79.0181C195.944 79.2794 195.846 79.5828 195.846 79.9281C195.846 80.3761 195.972 80.7168 196.224 80.9501C196.476 81.1741 196.816 81.2861 197.246 81.2861C197.451 81.2861 197.675 81.2394 197.918 81.1461C198.16 81.0434 198.394 80.9221 198.618 80.7821C198.842 80.6421 199.024 80.5021 199.164 80.3621ZM201.614 81.2581C201.614 81.2954 201.609 81.3234 201.6 81.3421C201.506 81.5474 201.348 81.7061 201.124 81.8181C200.909 81.9208 200.694 81.9721 200.48 81.9721C200.088 81.9721 199.803 81.8601 199.626 81.6361C199.458 81.4028 199.322 81.1181 199.22 80.7821C198.865 81.1088 198.473 81.3841 198.044 81.6081C197.614 81.8228 197.152 81.9301 196.658 81.9301C196.312 81.9301 195.986 81.8648 195.678 81.7341C195.379 81.5941 195.136 81.3934 194.95 81.1321C194.763 80.8708 194.67 80.5534 194.67 80.1801C194.67 79.7881 194.768 79.4521 194.964 79.1721C195.169 78.8828 195.426 78.6401 195.734 78.4441C196.051 78.2388 196.387 78.0754 196.742 77.9541C197.106 77.8234 197.446 77.7254 197.764 77.6601C197.978 77.6134 198.198 77.5714 198.422 77.534C198.646 77.4967 198.865 77.4594 199.08 77.4221C199.08 77.1608 199.066 76.8574 199.038 76.5121C199.019 76.1668 198.949 75.8821 198.828 75.6581C198.706 75.4434 198.543 75.2521 198.338 75.0841C198.132 74.9161 197.904 74.8321 197.652 74.8321C197.222 74.8321 196.886 74.9441 196.644 75.1681C196.401 75.3921 196.228 75.7094 196.126 76.1201C196.116 76.1668 196.107 76.2181 196.098 76.2741C196.098 76.3208 196.093 76.3674 196.084 76.4141C196.074 76.4701 196.037 76.5214 195.972 76.5681C195.916 76.6054 195.855 76.6241 195.79 76.6241C195.612 76.6241 195.449 76.5821 195.3 76.4981C195.16 76.4141 195.09 76.2741 195.09 76.0781C195.09 75.9661 195.108 75.8681 195.146 75.784C195.267 75.4948 195.463 75.2568 195.734 75.0701C196.004 74.8741 196.303 74.7248 196.63 74.6221C196.966 74.5194 197.278 74.4681 197.568 74.4681C198.072 74.4681 198.529 74.5614 198.94 74.7481C199.35 74.9348 199.677 75.2101 199.92 75.5741C200.172 75.9288 200.298 76.3768 200.298 76.9181C200.298 77.5248 200.293 78.1361 200.284 78.7521C200.284 79.3681 200.302 79.9841 200.34 80.6001C200.349 80.8054 200.391 80.9874 200.466 81.1461C200.54 81.2954 200.694 81.3701 200.928 81.3701C201.049 81.3701 201.175 81.3421 201.306 81.2861C201.446 81.2208 201.534 81.1881 201.572 81.1881C201.6 81.1881 201.614 81.2114 201.614 81.2581ZM207.801 75.7701C207.801 75.8633 207.764 75.9521 207.689 76.0361C207.624 76.1108 207.54 76.1481 207.437 76.1481C207.297 76.1481 207.194 76.1014 207.129 76.0081C207.073 75.9148 207.022 75.8074 206.975 75.6861C206.938 75.5648 206.877 75.4574 206.793 75.3641C206.709 75.2708 206.569 75.2241 206.373 75.2241C206.336 75.2241 206.298 75.2241 206.261 75.2241C206.233 75.2241 206.2 75.2288 206.163 75.2381C206.004 75.2661 205.832 75.3641 205.645 75.5321C205.458 75.7001 205.276 75.9008 205.099 76.1341C204.931 76.3581 204.791 76.5821 204.679 76.8061C204.567 77.0301 204.506 77.2168 204.497 77.3661C204.488 77.5154 204.483 77.6648 204.483 77.8141C204.483 77.9541 204.483 78.0941 204.483 78.2341C204.483 78.7381 204.483 79.2421 204.483 79.7461C204.492 80.2501 204.497 80.7494 204.497 81.2441C204.497 81.3841 204.553 81.4868 204.665 81.5521C204.786 81.6081 204.908 81.6361 205.029 81.6361C205.122 81.6361 205.216 81.6314 205.309 81.6221C205.402 81.6128 205.496 81.6081 205.589 81.6081C205.636 81.6081 205.668 81.6314 205.687 81.6781C205.706 81.7154 205.715 81.7528 205.715 81.7901C205.715 81.9394 205.64 82.0141 205.491 82.0141C205.211 82.0141 204.931 82.0094 204.651 82.0001C204.371 81.9814 204.091 81.9721 203.811 81.9721C203.522 81.9721 203.228 81.9814 202.929 82.0001C202.64 82.0188 202.346 82.0281 202.047 82.0281C202.01 82.0281 201.982 82.0001 201.963 81.9441C201.954 81.8881 201.949 81.8414 201.949 81.8041C201.949 81.7108 201.986 81.6594 202.061 81.6501C202.164 81.6314 202.271 81.6268 202.383 81.6361C202.495 81.6454 202.598 81.6501 202.691 81.6501C202.831 81.6501 202.943 81.6221 203.027 81.5661C203.12 81.5008 203.172 81.3934 203.181 81.2441C203.2 80.9454 203.209 80.6421 203.209 80.3341C203.218 80.0261 203.223 79.7181 203.223 79.4101V78.0521C203.214 77.6508 203.209 77.2541 203.209 76.8621C203.218 76.4608 203.204 76.0641 203.167 75.6721C203.158 75.4854 203.106 75.3548 203.013 75.2801C202.92 75.1961 202.78 75.1541 202.593 75.1541C202.518 75.1541 202.439 75.1634 202.355 75.1821C202.28 75.1914 202.201 75.1961 202.117 75.1961C202.042 75.1961 202.005 75.1401 202.005 75.0281C202.005 74.9628 202.038 74.9161 202.103 74.8881C202.196 74.8601 202.294 74.8414 202.397 74.8321C202.5 74.8134 202.598 74.7994 202.691 74.7901C202.943 74.7434 203.195 74.6968 203.447 74.6501C203.699 74.6034 203.951 74.5474 204.203 74.4821C204.287 74.5101 204.348 74.5614 204.385 74.6361C204.404 74.6734 204.418 74.7761 204.427 74.9441C204.436 75.1121 204.441 75.3081 204.441 75.5321C204.441 75.7468 204.441 75.9521 204.441 76.1481C204.441 76.3348 204.441 76.4654 204.441 76.5401C204.646 76.2134 204.88 75.8868 205.141 75.5601C205.402 75.2334 205.701 74.9628 206.037 74.7481C206.373 74.5334 206.751 74.4261 207.171 74.4261C207.395 74.4261 207.54 74.4961 207.605 74.6361C207.67 74.7761 207.712 74.9394 207.731 75.1261C207.75 75.2288 207.764 75.3361 207.773 75.4481C207.792 75.5601 207.801 75.6673 207.801 75.7701ZM220.686 81.8181C220.686 81.9488 220.634 82.0141 220.532 82.0141C220.27 82.0141 220.004 82.0048 219.734 81.9861C219.463 81.9674 219.192 81.9581 218.922 81.9581C218.651 81.9581 218.376 81.9674 218.096 81.9861C217.825 82.0048 217.554 82.0141 217.284 82.0141C217.246 82.0141 217.218 81.9908 217.2 81.9441C217.19 81.8974 217.186 81.8601 217.186 81.8321C217.186 81.7481 217.228 81.6968 217.312 81.6781C217.405 81.6594 217.503 81.6548 217.606 81.6641C217.718 81.6734 217.802 81.6781 217.858 81.6781C217.988 81.6781 218.096 81.6454 218.18 81.5801C218.264 81.5148 218.306 81.4168 218.306 81.2861C218.306 80.6608 218.31 80.0401 218.32 79.4241C218.338 78.8081 218.348 78.192 218.348 77.576C218.348 77.4733 218.348 77.3708 218.348 77.2681C218.348 77.1654 218.343 77.0628 218.334 76.9601C218.324 76.7361 218.31 76.5074 218.292 76.2741C218.282 76.0314 218.245 75.8074 218.18 75.6021C218.114 75.3874 218.002 75.2148 217.844 75.0841C217.685 74.9534 217.456 74.8881 217.158 74.8881C216.943 74.8881 216.705 74.9534 216.444 75.0841C216.192 75.2054 215.949 75.3501 215.716 75.5181C215.482 75.6861 215.286 75.8448 215.128 75.9941C215.146 76.1248 215.156 76.2601 215.156 76.4001C215.156 76.5308 215.156 76.6614 215.156 76.7921C215.156 77.0628 215.156 77.338 215.156 77.618C215.165 77.8887 215.17 78.1594 215.17 78.4301C215.17 78.9061 215.165 79.3821 215.156 79.8581C215.156 80.3341 215.156 80.8101 215.156 81.2861C215.156 81.4261 215.216 81.5241 215.338 81.5801C215.459 81.6361 215.58 81.6641 215.702 81.6641C215.776 81.6641 215.851 81.6594 215.926 81.6501C216.01 81.6408 216.084 81.6361 216.15 81.6361C216.196 81.6361 216.224 81.6594 216.234 81.7061C216.252 81.7528 216.262 81.7901 216.262 81.8181C216.262 81.8648 216.248 81.9114 216.22 81.9581C216.192 81.9954 216.15 82.0141 216.094 82.0141C215.832 82.0141 215.566 82.0048 215.296 81.9861C215.034 81.9674 214.768 81.9581 214.498 81.9581C214.236 81.9581 213.97 81.9674 213.7 81.9861C213.429 82.0048 213.158 82.0141 212.888 82.0141C212.85 82.0141 212.822 81.9908 212.804 81.9441C212.785 81.8974 212.776 81.8601 212.776 81.8321C212.776 81.7574 212.813 81.7061 212.888 81.6781C212.962 81.6594 213.051 81.6548 213.154 81.6641C213.266 81.6734 213.359 81.6781 213.434 81.6781C213.564 81.6781 213.672 81.6501 213.756 81.5941C213.849 81.5288 213.896 81.4261 213.896 81.2861V77.7161C213.896 77.5201 213.891 77.2774 213.882 76.9881C213.882 76.6988 213.863 76.4141 213.826 76.1341C213.798 75.8448 213.746 75.6161 213.672 75.4481C213.606 75.2801 213.494 75.1494 213.336 75.0561C213.186 74.9628 213.018 74.9161 212.832 74.9161C212.589 74.9161 212.342 74.9768 212.09 75.0981C211.838 75.2194 211.6 75.3688 211.376 75.5461C211.152 75.7234 210.96 75.9008 210.802 76.0781V81.2721C210.802 81.4121 210.853 81.5148 210.956 81.5801C211.058 81.6361 211.17 81.6641 211.292 81.6641C211.366 81.6641 211.441 81.6594 211.516 81.6501C211.59 81.6314 211.66 81.6221 211.726 81.6221C211.763 81.6221 211.786 81.6501 211.796 81.7061C211.805 81.7528 211.81 81.7854 211.81 81.8041C211.81 81.8508 211.796 81.8974 211.768 81.9441C211.749 81.9814 211.712 82.0001 211.656 82.0001C211.478 82.0001 211.301 81.9954 211.124 81.9861C210.946 81.9674 210.769 81.9581 210.592 81.9581C210.237 81.9581 209.882 81.9674 209.528 81.9861C209.173 81.9954 208.818 82.0001 208.464 82.0001C208.426 82.0001 208.398 81.9768 208.38 81.9301C208.361 81.8834 208.352 81.8461 208.352 81.8181C208.352 81.7061 208.398 81.6501 208.492 81.6501C208.594 81.6501 208.692 81.6548 208.786 81.6641C208.879 81.6641 208.972 81.6641 209.066 81.6641C209.196 81.6641 209.308 81.6361 209.402 81.5801C209.495 81.5148 209.542 81.4121 209.542 81.2721C209.542 80.3294 209.537 79.3868 209.528 78.4441C209.528 77.4921 209.528 76.5448 209.528 75.6021C209.528 75.4994 209.518 75.3968 209.5 75.2941C209.481 75.1914 209.42 75.1214 209.318 75.0841C209.252 75.0561 209.182 75.0421 209.108 75.0421C208.986 75.0421 208.865 75.0608 208.744 75.0981C208.622 75.1261 208.496 75.1401 208.366 75.1401C208.282 75.1401 208.24 75.0841 208.24 74.9721C208.24 74.8974 208.268 74.8508 208.324 74.8321C208.37 74.8134 208.422 74.8041 208.478 74.8041C208.543 74.7948 208.604 74.7854 208.66 74.7761C208.874 74.7481 209.089 74.7154 209.304 74.6781C209.528 74.6314 209.742 74.5848 209.948 74.5381C210.022 74.5194 210.102 74.5008 210.186 74.4821C210.27 74.4634 210.354 74.4541 210.438 74.4541C210.55 74.4541 210.624 74.5381 210.662 74.7061C210.708 74.8648 210.732 75.0374 210.732 75.2241C210.741 75.4108 210.746 75.5461 210.746 75.6301C210.942 75.4621 211.161 75.2894 211.404 75.1121C211.646 74.9254 211.903 74.7668 212.174 74.6361C212.444 74.5054 212.715 74.4401 212.986 74.4401C213.462 74.4401 213.863 74.5194 214.19 74.6781C214.516 74.8368 214.796 75.1354 215.03 75.5741C215.235 75.3968 215.468 75.2194 215.73 75.0421C215.991 74.8554 216.262 74.7014 216.542 74.5801C216.831 74.4494 217.116 74.3841 217.396 74.3841C218.012 74.3841 218.478 74.4728 218.796 74.6501C219.122 74.8274 219.342 75.1028 219.454 75.4761C219.575 75.8401 219.636 76.3114 219.636 76.8901C219.636 77.6181 219.631 78.3508 219.622 79.0881C219.612 79.8161 219.608 80.5488 219.608 81.2861C219.608 81.4261 219.668 81.5241 219.79 81.5801C219.92 81.6361 220.046 81.6641 220.168 81.6641C220.242 81.6641 220.312 81.6594 220.378 81.6501C220.452 81.6408 220.522 81.6361 220.588 81.6361C220.625 81.6361 220.648 81.6594 220.658 81.7061C220.676 81.7528 220.686 81.7901 220.686 81.8181Z" fill="#4E301B"/>
</svg>
