<svg width="96" height="96" viewBox="0 0 96 96" fill="none" xmlns="http://www.w3.org/2000/svg">
<path d="M93.5204 20.8329L85.5522 17.4261C81.0442 15.4995 75.9594 15.9056 71.6875 17.7534L75.1079 8.76356C75.8545 6.771 75.6839 4.66163 74.6228 3.11475C73.7187 1.818 72.2635 1.04419 70.7045 1.04419C69.5903 1.04419 68.5029 1.43756 67.5592 2.17125L54.5849 12.21C54.5455 12.2494 54.4932 12.276 54.4539 12.3276H39.488C39.4486 12.276 39.3963 12.2494 39.3569 12.21L26.3962 2.17125C25.4395 1.43738 24.3513 1.04419 23.2379 1.04419C21.6781 1.04419 20.2237 1.818 19.3195 3.11475C18.2577 4.66163 18.0871 6.771 18.8474 8.76356L21.9277 16.8885C18.2184 15.8269 14.1558 15.8531 10.4602 17.4259L2.49216 20.8328C-0.0763978 21.9332 -0.77071 24.6594 0.933102 26.9263L6.24085 34.0031C9.50373 38.3543 14.641 40.6478 19.6205 40.9753L21.7047 63.9221C20.6429 65.1939 19.8826 66.6878 19.5159 68.3128L18.6509 72.1654L18.3622 73.4108C17.7331 76.1629 18.2319 78.9936 19.778 81.3917C20.551 82.6104 21.5735 83.6723 22.7656 84.5241C22.7262 85.2707 22.8575 86.0181 23.159 86.7122L25.0855 91.1286C26.3172 93.9587 29.7642 94.9554 32.5942 94.9554H61.3599C64.1778 94.9554 67.6377 93.9587 68.8692 91.1286L70.7958 86.7122C71.0969 86.0181 71.2287 85.2707 71.1892 84.5362C72.3549 83.685 73.3773 82.6232 74.164 81.3915C75.7102 78.9934 76.2082 76.1627 75.592 73.4235L75.304 72.1524L74.4127 68.3128C74.0457 66.6879 73.2985 65.2198 72.2502 63.9488L74.3337 41.0018C79.9036 41.2504 86.0369 38.9576 89.759 34.0031L95.0662 26.9263C96.7704 24.6596 96.0762 21.9334 93.5204 20.8329ZM65.2657 89.5562C64.8858 90.4082 63.2609 91.0243 61.36 91.0243H32.5945C30.6944 91.0243 29.0695 90.4082 28.6897 89.5562L27.3785 86.5686C28.2963 86.7786 29.2527 86.8832 30.2229 86.8832H63.7323C64.7024 86.8832 65.6589 86.7786 66.5632 86.5815L65.2657 89.5562ZM30.655 82.9509H30.223C28.8072 82.9509 27.4968 82.6371 26.3439 82.0867C25.6884 81.7845 25.0987 81.4054 24.5742 80.9591C23.9845 80.4611 23.4736 79.8981 23.0804 79.269L22.7137 75.1929L22.5037 72.9131L23.3555 69.1911C24.1156 65.8106 27.4839 63.3861 31.3758 63.3861H35.7134H58.2412H62.566C66.4717 63.3861 69.8133 65.8106 70.5863 69.1911L71.4382 72.9131L71.2419 75.1673L70.8751 79.2431C70.8614 79.2561 70.8614 79.269 70.8485 79.2818C70.4551 79.8979 69.9571 80.4611 69.3676 80.9462C68.8437 81.4056 68.2542 81.7845 67.5987 82.0867C66.4587 82.6371 65.1475 82.9509 63.7325 82.9509H63.2868H30.655ZM43.8391 43.8722V15.2108H50.1035V43.8724C50.1035 49.4683 51.7808 54.9193 54.9132 59.4548H39.0423C42.161 54.9191 43.8391 49.4681 43.8391 43.8722ZM70.7045 4.9755C71.4775 4.9755 71.9232 6.06394 71.4252 7.37438L68.1753 15.9056C65.8029 14.3458 63.1297 13.2848 60.3254 12.7474L69.9573 5.27719C70.2324 5.06794 70.4817 4.9755 70.7045 4.9755ZM64.6107 36.9653C64.6107 36.9653 64.6237 36.9653 64.6237 36.9789C65.3444 37.2936 65.947 37.8173 66.3533 38.4857C66.7072 39.0624 66.9172 39.7438 66.9172 40.4646V42.3253C66.9172 44.4225 65.2133 46.1256 63.1169 46.1256H61.5965C59.4864 46.1256 57.7825 44.4225 57.7825 42.3253V40.4646C57.7825 38.3674 59.4864 36.6643 61.5965 36.6643H63.1169C63.6408 36.6645 64.1515 36.7689 64.6107 36.9653ZM36.1591 42.3255C36.1591 44.4227 34.456 46.1258 32.3589 46.1258H30.8384C28.742 46.1258 27.0382 44.4227 27.0382 42.3255V40.4648C27.0382 40.2684 27.0511 40.0714 27.0905 39.8751C27.3655 38.0537 28.9383 36.6645 30.8384 36.6645H31.651H32.3589C34.456 36.6645 36.1591 38.3676 36.1591 40.4648V42.3255ZM25.7671 15.9056L22.5172 7.37438C22.0192 6.06394 22.4649 4.9755 23.2379 4.9755C23.4609 4.9755 23.723 5.06794 23.9845 5.27719L33.6299 12.7474C30.8127 13.2848 28.1388 14.3458 25.7671 15.9056ZM75.5137 27.9233C75.5401 27.6086 75.5538 27.2942 75.5538 26.9796C75.5538 25.7085 75.3174 24.4367 74.846 23.2575C76.405 22.6414 78.712 22.1833 81.1884 23.2316L84.3207 24.5678C85.9328 25.2619 86.3785 26.9923 85.3038 28.4338L83.2201 31.1994C81.6605 33.2829 79.577 34.0819 78.1087 34.3836C77.0339 34.6058 75.9335 34.6457 74.9238 34.4882L75.5137 27.9233ZM18.4282 27.9233L19.0308 34.5407C18.6509 34.5148 18.2707 34.4627 17.8908 34.3838C16.4234 34.0821 14.3529 33.2831 12.793 31.1996L10.7095 28.434C9.6211 26.9925 10.0668 25.2621 11.6917 24.5679L14.8113 23.2318C16.4362 22.5368 17.9954 22.4974 19.3194 22.7338C18.7032 24.0707 18.3886 25.5122 18.3886 26.9798C18.3888 27.2942 18.4017 27.6088 18.4282 27.9233Z" fill="#4E301B"/>
<path d="M31.9789 39.0232H31.2187C30.1699 39.0232 29.3186 39.875 29.3186 40.9361V41.8539C29.3186 42.9149 30.1697 43.754 31.2187 43.754H31.9789C33.027 43.754 33.879 42.9151 33.879 41.8539V40.9361C33.8792 39.875 33.0272 39.0232 31.9789 39.0232ZM30.6686 40.9884C30.6686 40.4645 31.1006 40.0454 31.6252 40.0454H32.0049C32.2408 40.0454 32.4506 40.1242 32.6075 40.2682L30.8651 42.0108C30.734 41.8668 30.6688 41.6698 30.6688 41.4605V40.9884H30.6686Z" fill="#4E301B"/>
<path d="M60.0762 40.9361V41.8539C60.0762 42.9149 60.9152 43.754 61.9763 43.754H62.7364C63.7845 43.754 64.6365 42.9151 64.6365 41.8539V40.9361C64.6365 39.875 63.7847 39.0232 62.7364 39.0232H61.9763C60.9152 39.0232 60.0762 39.875 60.0762 40.9361ZM61.1622 40.9884C61.1622 40.4645 61.5951 40.0454 62.1195 40.0454H62.4994C62.7351 40.0454 62.9451 40.1242 63.1026 40.2682L61.3594 42.0108C61.2284 41.8668 61.1624 41.6698 61.1624 41.4605V40.9884H61.1622Z" fill="#4E301B"/>
<path d="M40.8902 72.1269L37.011 70.6588L36.8936 67.4216C36.8799 67.0282 36.5919 66.7008 36.1988 66.6221L36.0941 66.6091L35.5834 66.6356C35.1506 66.6485 34.7837 66.9759 34.7314 67.4086L34.0106 74.3013C33.9578 74.7341 34.2334 75.1274 34.6526 75.2321L40.5234 76.7002C40.7856 76.7525 41.0608 76.6736 41.2571 76.5033C41.4671 76.3199 41.5725 76.0711 41.5588 75.7961L41.3102 72.8084C41.2963 72.5197 41.1396 72.2701 40.8902 72.1269Z" fill="#4E301B"/>
<path d="M58.3594 66.6358L57.8616 66.6094L57.7435 66.6223C57.3508 66.7011 57.0621 67.0284 57.0491 67.4218L56.9438 70.659L53.0518 72.1271C52.8032 72.2704 52.6585 72.5198 52.6326 72.8085L52.3969 75.7961C52.3703 76.0712 52.4749 76.32 52.6849 76.5034C52.8812 76.6738 53.1563 76.7527 53.4186 76.7002L59.2894 75.2321C59.7094 75.1275 59.9845 74.7341 59.9451 74.3014L59.2114 67.4087C59.1589 66.9761 58.7921 66.6487 58.3594 66.6358Z" fill="#4E301B"/>
</svg>
